<?xml version="1.0" standalone="no"?>
<!DOCTYPE svg PUBLIC "-//W3C//DTD SVG 1.1//EN" "http://www.w3.org/Graphics/SVG/1.1/DTD/svg11.dtd" >
<svg xmlns="http://www.w3.org/2000/svg">
<metadata>Generated by IcoMoon</metadata>
<defs>
<font id="Buyshop" horiz-adv-x="1024">
<font-face units-per-em="1024" ascent="960" descent="-64" />
<missing-glyph horiz-adv-x="1024" />
<glyph unicode="&#x20;" horiz-adv-x="512" d="" />
<glyph unicode="&#xe601;" glyph-name="arrow-down2" d="M491.376-52.896c6.288-6.288 14.512-9.424 22.752-9.424 8.224 0 16.448 3.136 22.752 9.424l339.792 339.824c12.56 12.576 12.56 32.944 0 45.504-12.576 12.56-32.944 12.56-45.504 0l-284.864-284.896v876.496c0 17.76-14.384 32.176-32.176 32.176s-32.176-14.4-32.176-32.176v-876.496l-284.928 284.896c-12.56 12.56-32.928 12.56-45.488 0-12.576-12.56-12.576-32.928 0-45.504l339.84-339.824z" />
<glyph unicode="&#xe602;" glyph-name="arrow-left2" d="M354.464 84.368c6.304-6.288 14.512-9.44 22.752-9.44s16.464 3.152 22.752 9.44c12.56 12.56 12.56 32.928 0 45.488l-284.88 284.896h876.496c17.776 0 32.176 14.4 32.176 32.16s-14.384 32.176-32.176 32.176h-876.496l284.88 284.912c12.56 12.56 12.56 32.928 0 45.488s-32.928 12.576-45.504 0l-339.792-339.824c-12.56-12.576-12.56-32.928 0-45.488l339.792-339.808z" />
<glyph unicode="&#xe603;" glyph-name="arrow-right2" d="M674.784 809.488c-6.304 6.288-14.512 9.44-22.752 9.44s-16.464-3.152-22.752-9.44c-12.56-12.56-12.56-32.928 0-45.488l284.88-284.896h-876.496c-17.776 0-32.176-14.4-32.176-32.16 0-17.776 14.384-32.192 32.176-32.192h876.496l-284.88-284.896c-12.56-12.56-12.56-32.928 0-45.504 12.56-12.56 32.928-12.56 45.504 0l339.792 339.84c12.56 12.56 12.56 32.928 0 45.488l-339.792 339.808z" />
<glyph unicode="&#xe604;" glyph-name="arrow-up2" d="M174.128 552.016c8.224 0 16.448 3.136 22.736 9.424l284.88 284.896v-876.512c0-17.744 14.368-32.176 32.176-32.176 17.776 0 32.176 14.416 32.176 32.176v876.512l284.912-284.896c6.288-6.288 14.512-9.424 22.752-9.424 8.224 0 16.448 3.136 22.736 9.424 12.576 12.576 12.576 32.928 0 45.504l-339.84 339.808c-12.56 12.56-32.928 12.56-45.488 0l-339.792-339.808c-12.576-12.576-12.576-32.928 0-45.504 6.288-6.272 14.512-9.424 22.752-9.424z" />
<glyph unicode="&#xe605;" glyph-name="ban-circle" d="M512 960c-282.32 0-512-229.68-512-512s229.68-512 512-512 512 229.68 512 512-229.68 512-512 512zM512 896c111.184 0 212.816-40.96 291.216-108.272l-630.928-630.96c-67.312 78.4-108.288 180.048-108.288 291.232 0 247.024 200.976 448 448 448zM512 0c-112.848 0-215.776 42.272-294.624 111.36l631.248 631.28c69.12-78.848 111.376-181.792 111.376-294.64 0-247.024-200.976-448-448-448z" />
<glyph unicode="&#xe606;" glyph-name="bookmark" d="M273.824 959.904c-17.664 0-32-14.336-32-32.032v-953.344c0-11.808 6.528-22.688 16.976-28.256 10.4-5.536 23.088-4.88 32.88 1.68l215.088 144.752 215.312-151.008c5.504-3.84 11.936-5.808 18.368-5.808 5.056 0 10.128 1.184 14.752 3.632 10.624 5.504 17.248 16.432 17.248 28.368v959.984c0 17.68-14.32 32.032-32 32.032h-466.624zM708.448 29.472l-182.944 128.32c-5.504 3.84-11.936 5.776-18.368 5.776-6.256 0-12.432-1.808-17.872-5.44l-183.44-123.472v861.216h402.624v-866.4z" />
<glyph unicode="&#xe607;" glyph-name="bucket" d="M88.864 806.32c0-1.552 0.496-2.96 0.592-4.496 0.096-0.512-0.096-0.976-0.032-1.472l0.688-3.456c0.496-4.208 1.088-8.368 2.32-12.384l145.024-765.28c1.696-9.024 7.2-16.88 15.072-21.584 5.92-3.52 101.248-58.992 246.432-58.992 73.92 0 160.8 14.384 255.312 57.328 9.52 4.32 16.32 12.992 18.272 23.248l145.024 765.28c1.216 4.016 1.776 8.176 2.336 12.384l0.624 3.456c0.128 0.496-0.064 0.976 0 1.472 0.096 1.536 0.56 2.944 0.56 4.496 0 1.872-0.56 3.552-0.688 5.392-0.096 0.64-0.096 1.296-0.256 1.936-9.904 100.256-219.52 146.16-415.136 146.16-195.648 0-405.248-45.904-415.216-146.176-0.128-0.64-0.128-1.296-0.224-1.936-0.144-1.824-0.704-3.504-0.704-5.376zM712.656 47.792c-208.272-88.144-370.096-23.504-415.024-1.488l-125.664 663.232c81.088-38.464 209.856-56.688 333.040-56.688s251.952 18.224 333.024 56.688l-125.376-661.744zM505.008 895.632c228.8 0 348.16-60.72 351.616-88.032l-1.312-7.056c-14.832-28.976-133.504-83.52-350.304-83.52s-335.488 54.544-350.288 83.52l-1.344 7.056c3.456 27.312 122.816 88.032 351.632 88.032z" />
<glyph unicode="&#xe608;" glyph-name="bullhorn" d="M1009.040 859.088c-9.296 5.824-20.976 6.528-30.88 1.808-265.872-126.384-614.768-136.224-715.424-136.224-13.408 0-20.816 0.192-21.056 0.224-8.912 0.288-17.008-3.008-23.2-9.008-5.584-5.408-8.576-12.752-9.168-20.432h-113.28c-52.976-0.016-96.032-42.88-96.032-95.584v-137.616c0-52.688 43.056-95.568 96.032-95.568h113.12c0.4-7.952 3.568-15.584 9.328-21.168 4.352-4.208 9.872-6.384 15.712-7.664 0.72-95.856 20.176-195.664 60.752-311.072 4.48-12.784 16.592-21.328 30.192-21.328h165.408c10.864 0 20.992 5.488 26.896 14.576 5.872 9.088 6.752 20.528 2.256 30.4-22.384 49.328-73.168 186.336-65.648 277.248 151.232-13.44 354.448-46.528 524.128-127.184 4.368-2.096 9.104-3.12 13.808-3.12 5.952 0 11.888 1.664 17.056 4.928 9.296 5.824 14.96 15.984 14.96 26.928v602.912c0 10.96-5.664 21.136-14.96 26.944zM64.016 462.256v137.616c0 17.584 14.336 31.856 32.016 31.856h112.768v-201.328h-112.768c-17.68 0-32.016 14.272-32.016 31.856zM442.896 69.152h-94.848c-32.912 98.768-48.992 184.912-49.872 267.152 24.88-0.496 55.904-1.6 91.984-3.808-7.072-89.632 29.28-201.936 52.736-263.344zM959.984 278.368c-261.952 109.248-578.080 121.36-687.168 122v260.624c109.088 0.656 425.216 12.752 687.168 122v-504.624z" />
<glyph unicode="&#xe609;" glyph-name="calendar" d="M1024 784.352c0 53.376-43.056 96.784-96 96.784h-101.568v46.592c0 17.84-14.32 32.272-32 32.272s-32-14.432-32-32.272v-46.592h-502.304v46.592c0 17.84-14.32 32.272-32 32.272s-32-14.432-32-32.272v-46.592h-100.128c-52.944 0-96-43.408-96-96.784v-147.344c0-1.76 0.72-3.28 1.008-4.976-0.288-1.696-1.008-3.216-1.008-4.976 0-0.048 0.032-0.128 0.032-0.176 0-0.080-0.032-0.144-0.032-0.208v-593.904c0-53.36 43.056-96.768 96-96.768h832c52.944 0 96 43.408 96 96.784v593.888c0 0.064-0.032 0.128-0.032 0.192 0 0.048 0.032 0.128 0.032 0.176 0 1.76-0.72 3.28-1.008 4.992 0.288 1.696 1.008 3.216 1.008 4.976v147.344zM960 32.784c0-17.792-14.336-32.256-32-32.256h-832c-17.664 0-32 14.464-32 32.256v562.016h896v-562.016zM960 659.328h-896v125.040c0 17.808 14.336 32.272 32 32.272h100.128v-46.608c0-17.824 14.32-32.256 32-32.256s32 14.432 32 32.256v46.592h502.32v-46.608c0-17.824 14.32-32.256 32-32.256 17.696 0 32 14.432 32 32.256v46.608h101.552c17.664 0 32-14.464 32-32.272v-125.024zM370.912 418.752c0-17.814-14.327-32.256-32-32.256s-32 14.442-32 32.256c0 17.814 14.327 32.256 32 32.256s32-14.442 32-32.256zM525.632 418.752c0-17.814-14.327-32.256-32-32.256s-32 14.442-32 32.256c0 17.814 14.327 32.256 32 32.256s32-14.442 32-32.256zM698.592 418.752c0-17.814-14.327-32.256-32-32.256s-32 14.442-32 32.256c0 17.814 14.327 32.256 32 32.256s32-14.442 32-32.256zM875.152 418.752c0-17.814-14.327-32.256-32-32.256s-32 14.442-32 32.256c0 17.814 14.327 32.256 32 32.256s32-14.442 32-32.256zM212.848 307.104c0-17.814-14.327-32.256-32-32.256s-32 14.442-32 32.256c0 17.814 14.327 32.256 32 32.256s32-14.442 32-32.256zM370.912 307.104c0-17.814-14.327-32.256-32-32.256s-32 14.442-32 32.256c0 17.814 14.327 32.256 32 32.256s32-14.442 32-32.256zM525.632 307.104c0-17.814-14.327-32.256-32-32.256s-32 14.442-32 32.256c0 17.814 14.327 32.256 32 32.256s32-14.442 32-32.256zM698.592 307.104c0-17.814-14.327-32.256-32-32.256s-32 14.442-32 32.256c0 17.814 14.327 32.256 32 32.256s32-14.442 32-32.256zM875.152 307.104c0-17.814-14.327-32.256-32-32.256s-32 14.442-32 32.256c0 17.814 14.327 32.256 32 32.256s32-14.442 32-32.256zM212.848 195.92c0-17.814-14.327-32.256-32-32.256s-32 14.442-32 32.256c0 17.814 14.327 32.256 32 32.256s32-14.442 32-32.256zM370.912 195.92c0-17.814-14.327-32.256-32-32.256s-32 14.442-32 32.256c0 17.814 14.327 32.256 32 32.256s32-14.442 32-32.256zM525.632 195.92c0-17.814-14.327-32.256-32-32.256s-32 14.442-32 32.256c0 17.814 14.327 32.256 32 32.256s32-14.442 32-32.256zM698.592 195.92c0-17.814-14.327-32.256-32-32.256s-32 14.442-32 32.256c0 17.814 14.327 32.256 32 32.256s32-14.442 32-32.256zM875.152 195.92c0-17.814-14.327-32.256-32-32.256s-32 14.442-32 32.256c0 17.814 14.327 32.256 32 32.256s32-14.442 32-32.256zM212.848 84.256c0-17.814-14.327-32.256-32-32.256s-32 14.442-32 32.256c0 17.814 14.327 32.256 32 32.256s32-14.442 32-32.256zM370.912 84.256c0-17.814-14.327-32.256-32-32.256s-32 14.442-32 32.256c0 17.814 14.327 32.256 32 32.256s32-14.442 32-32.256zM525.632 84.256c0-17.814-14.327-32.256-32-32.256s-32 14.442-32 32.256c0 17.814 14.327 32.256 32 32.256s32-14.442 32-32.256z" />
<glyph unicode="&#xe60a;" glyph-name="check-square" d="M1011.648 952.656c-14.224 11.536-34.976 9.216-46.384-5.12l-526.864-662.96-172.496 217.040c-11.408 14.352-32.208 16.672-46.4 5.12-14.208-11.536-16.496-32.512-5.040-46.896l190.864-240.176c5.776-10.336 16.608-16.512 28.288-16.512 1.84 0 3.696 0.528 5.584 0.848 1.056-0.128 2.128-0.704 3.232-0.704 10.432 0 20.592 5.104 27.008 13.76l547.28 688.72c11.44 14.352 9.152 35.344-5.072 46.88zM946.544 621.056c-18.24 0-32.992-14.928-32.992-33.344v-551.648c0-18.384-14.816-33.36-33.024-33.36h-781.472c-18.224 0-33.024 14.976-33.024 33.36v789.648c0 18.368 14.816 33.344 33.024 33.344h540.976c18.256 0 33.008 14.944 33.008 33.376 0 18.4-14.768 33.344-33.008 33.344h-540.976c-54.624 0-99.040-44.88-99.040-100.064v-789.648c0-55.184 44.416-100.080 99.040-100.080h781.456c54.624 0 99.056 44.896 99.056 100.080v551.648c0.016 18.432-14.752 33.344-33.024 33.344z" />
<glyph unicode="&#xe60b;" glyph-name="check2" d="M257.184 79.216c5.904-8.544 15.6-13.408 25.84-13.408 2.128 0 4.304 0.784 6.464 1.216 1.568-0.256 3.088-1.024 4.672-1.024 9.2 0 18.144 3.984 24.416 10.896l696.224 696.336c12.56 12.544 12.56 32.896 0 45.456-12.544 12.544-32.896 12.544-45.44 0l-680.32-680.416-229.44 229.392c-12.544 12.56-32.896 12.56-45.44 0-12.56-12.544-12.56-32.896 0-45.456l243.024-242.992z" />
<glyph unicode="&#xe60c;" glyph-name="chevron-down-circle" d="M747.84 555.312l-231.584-231.6-231.76 231.792c-12.496 12.496-32.752 12.496-45.248 0-12.496-12.464-12.496-32.752 0-45.248l254.064-254.128c3.968-3.968 9.408-6.976 14.848-8.4 2.72-0.72 5.504-1.088 8.256-1.088 8.368 0 16.56 3.312 22.624 9.376l254.064 254.064c12.496 12.496 12.496 32.752 0 45.248s-32.768 12.48-45.264-0.016zM512 960c-282.32 0-512-229.68-512-512s229.68-512 512-512 512 229.68 512 512-229.68 512-512 512zM512 0c-247.024 0-448 200.976-448 448s200.976 448 448 448 448-200.976 448-448-200.976-448-448-448z" />
<glyph unicode="&#xe60d;" glyph-name="chevron-down" d="M968.528 708.272l-456.96-453.248-457.264 453.568c-6.352 6.304-14.672 9.44-22.992 9.44s-16.624-3.136-22.976-9.44c-12.688-12.592-12.688-32.992 0-45.584l479.68-475.76c3.2-3.2 7.904-6 12.112-7.616 12-4.512 25.552-1.712 34.656 7.296l479.696 475.76c12.688 12.592 12.688 32.992 0 45.584-12.704 12.576-33.248 12.576-45.952 0z" />
<glyph unicode="&#xe60e;" glyph-name="chevron-left-circle" d="M619.504 720.432c-12.496 12.496-32.736 12.496-45.248 0l-254.064-254.080c-3.312-3.264-6-7.696-7.632-12.080-4.256-11.68-1.376-24.816 7.44-33.632l254.064-254.064c6.256-6.272 14.432-9.376 22.624-9.376s16.368 3.104 22.64 9.376c12.48 12.496 12.48 32.736 0 45.232l-231.568 231.632 231.728 231.744c12.512 12.496 12.512 32.752 0.016 45.248zM512 959.664c-282.32 0-512-229.664-512-512 0-282.32 229.68-512 512-512s512 229.68 512 512c0 282.32-229.68 512-512 512zM512-0.336c-247.008 0-448 200.976-448 448s200.992 448 448 448c247.024 0 448-200.976 448-448s-200.976-448-448-448z" />
<glyph unicode="&#xe60f;" glyph-name="chevron-left" d="M728.624-54.56c6.304-6.304 14.528-9.44 22.784-9.44s16.496 3.152 22.784 9.44c12.592 12.592 12.592 32.976 0 45.568l-453.248 453.264 453.568 453.552c12.576 12.592 12.576 32.992 0 45.568-12.592 12.592-32.992 12.592-45.584 0l-475.776-475.76c-3.28-3.296-6.144-8.096-7.744-12.448-4.368-11.808-1.472-25.072 7.44-33.984l475.776-475.76z" />
<glyph unicode="&#xe610;" glyph-name="chevron-right-circle" d="M450.464 728.336c-12.496 12.496-32.736 12.496-45.2 0-12.496-12.48-12.496-32.72 0-45.184l231.36-231.408-231.568-231.52c-12.48-12.48-12.48-32.72 0-45.216 6.256-6.224 14.416-9.344 22.608-9.344 8.176 0 16.352 3.12 22.608 9.344l253.856 253.84c3.488 3.52 6.304 8.256 7.856 12.976 3.84 11.488 0.848 24.16-7.696 32.72l-253.824 253.792zM512.464 959.056c-282.048 0-511.52-229.456-511.52-511.52s229.472-511.536 511.52-511.536 511.536 229.472 511.536 511.536-229.488 511.52-511.536 511.52zM512.464-0.064c-246.8 0-447.6 200.784-447.6 447.6s200.8 447.584 447.6 447.584 447.6-200.784 447.6-447.6-200.8-447.584-447.6-447.584z" />
<glyph unicode="&#xe611;" glyph-name="chevron-right" d="M706.432 447.616l-453.248-453.264c-12.592-12.592-12.592-32.992 0-45.584 6.304-6.304 14.544-9.44 22.784-9.44s16.496 3.136 22.784 9.44l475.776 475.776c8.912 8.912 11.488 23.024 7.12 34.832-1.616 4.352-4.16 8.304-7.424 11.6l-475.792 475.776c-12.592 12.592-32.992 12.592-45.568 0-12.592-12.592-12.592-32.976 0-45.568l453.568-453.568z" />
<glyph unicode="&#xe612;" glyph-name="chevron-top-circle" d="M530.72 639.84c-3.216 3.232-7.632 5.92-11.872 7.536-11.84 4.352-24.992 1.552-33.872-7.344l-254.064-254.096c-12.496-12.496-12.496-32.752 0-45.248s32.752-12.496 45.248 0l231.584 231.632 231.776-231.776c6.256-6.256 14.432-9.376 22.624-9.376s16.368 3.12 22.624 9.376c12.496 12.496 12.496 32.752 0 45.248l-254.048 254.048zM512 960c-282.32 0-512-229.68-512-512s229.68-512 512-512 512 229.68 512 512-229.68 512-512 512zM512 0c-247.024 0-448 200.976-448 448s200.976 448 448 448 448-200.976 448-448-200.976-448-448-448z" />
<glyph unicode="&#xe613;" glyph-name="chevron-up" d="M53.632 187.264l456.96 453.248 457.28-453.552c6.352-6.304 14.672-9.44 22.976-9.44 8.32 0 16.64 3.136 22.976 9.44 12.688 12.592 12.688 32.992 0 45.584l-479.68 475.76c-3.2 3.2-7.904 6-12.112 7.6-12 4.512-25.552 1.712-34.656-7.296l-479.712-475.76c-12.688-12.592-12.688-32.992 0-45.584 12.704-12.576 33.264-12.576 45.968 0z" />
<glyph unicode="&#xe614;" glyph-name="clock3" d="M512 960c-282.32 0-512-229.68-512-512s229.68-512 512-512 512 229.68 512 512-229.68 512-512 512zM512 0c-247.024 0-448 200.976-448 448s200.976 448 448 448 448-200.976 448-448-200.976-448-448-448zM698.224 566.848l-179.216-80.592-212.64 212.656c-12.496 12.496-32.752 12.496-45.248 0s-12.496-32.752 0-45.248l228.256-228.288c0.464-0.464 1.088-0.624 1.568-1.056 2.288-2 4.752-3.632 7.44-4.912 0.976-0.464 1.872-0.976 2.912-1.312 3.392-1.248 6.96-2.096 10.64-2.096 0.032 0 0.064 0 0.064 0v0 0c0.064 0 0.128 0.032 0.192 0.032 4.224 0.032 8.4 0.976 12.368 2.656 0.192 0.096 0.368 0.032 0.56 0.128l199.344 89.664c16.128 7.248 23.312 26.192 16.064 42.32-7.28 16.080-26.16 23.264-42.304 16.048z" />
<glyph unicode="&#xe615;" glyph-name="cloud-download2" d="M500.56 881.888c-18.144 0-32.816-14.688-32.816-32.8v-512l-85.488 85.504c-12.832 12.8-33.584 12.8-46.384 0-12.816-12.816-12.816-33.584 0-46.384l141.488-141.488c6.4-6.4 14.8-9.6 23.2-9.6 8.368 0 16.784 3.2 23.168 9.6l141.504 141.488c12.816 12.816 12.816 33.584 0 46.384s-33.584 12.8-46.368 0l-85.504-85.504v512c0 18.112-14.672 32.8-32.8 32.8zM374.864 591.952c-26.528 7.696-54.080 11.6-81.888 11.6-161.552 0-292.976-131.44-292.976-292.992 0-155.248 121.472-282.336 274.336-292.032 1.6-0.24 3.008-0.944 4.656-0.944h531.504c0.736 0 1.344 0.368 2.064 0.416 0.704-0.048 1.344-0.416 2.048-0.416 114.416 0 207.52 96.24 207.52 214.528 0 116.688-94.928 211.648-211.632 211.648-0.32 0-0.56-0.176-0.896-0.176-26.272 73.488-96.336 126.32-178.752 126.32-18.144 0-32.8-14.688-32.8-32.8s14.656-32.8 32.8-32.8c68.544 0 124.352-55.776 124.352-124.368 0-18.112 14.672-32.8 32.816-32.8 17.12 0 30.768 13.296 32.224 30.048 75.92-5.104 136.272-67.856 136.272-145.040 0-82.128-63.648-148.928-141.904-148.928-0.704 0-1.344-0.368-2.048-0.416-0.72 0.048-1.328 0.416-2.064 0.416h-517.52c-125.376 0-227.36 102-227.36 227.376s101.984 227.376 227.36 227.376c21.632 0 43.008-3.024 63.6-8.992 17.392-5.024 35.6 4.992 40.64 22.368 5.072 17.36-4.96 35.568-22.352 40.608z" />
<glyph unicode="&#xe616;" glyph-name="cloud-upload2" d="M274.896 18.944c1.616-0.24 3.008-0.944 4.688-0.944h532.576c0.736 0 1.344 0.368 2.064 0.416 0.704-0.048 1.296-0.416 2.048-0.416 114.64 0 207.936 96.432 207.936 214.96 0 116.944-95.104 212.080-212.048 212.080-0.336 0-0.576-0.176-0.912-0.176-26.288 73.632-96.544 126.56-179.088 126.56-18.192 0-32.896-14.704-32.896-32.864 0-18.144 14.704-32.864 32.896-32.864 68.704 0 124.592-55.904 124.592-124.624 0-18.16 14.704-32.88 32.848-32.88 17.232 0 30.88 13.328 32.336 30.112 76.048-5.136 136.512-68.016 136.512-145.344 0-82.288-63.76-149.216-142.192-149.216-0.752 0-1.344-0.368-2.048-0.416-0.72 0.048-1.328 0.416-2.064 0.416h-518.56c-125.648 0-227.84 102.192-227.84 227.824s102.208 227.856 227.84 227.856c21.664 0 43.056-3.024 63.696-9.008 17.44-5.024 35.664 4.992 40.704 22.4 5.056 17.424-4.944 35.664-22.416 40.72-26.528 7.712-54.144 11.616-81.984 11.616-161.904 0-293.584-131.696-293.584-293.584 0-155.568 121.712-282.912 274.896-292.624zM512.096 225.936c18.176 0 32.864 14.704 32.864 32.864v510.992l83.632-83.632c6.416-6.416 14.848-9.632 23.248-9.632 8.384 0 16.816 3.216 23.232 9.632 12.832 12.848 12.832 33.648 0 46.48l-141.792 141.792c-12.848 12.832-33.664 12.832-46.48 0l-141.76-141.776c-12.848-12.832-12.848-33.648 0-46.48 6.4-6.416 14.832-9.632 23.232-9.632s16.816 3.216 23.232 9.632l87.728 87.744v-515.104c0-18.16 14.688-32.88 32.864-32.88z" />
<glyph unicode="&#xe617;" glyph-name="cloud2" d="M810.352 576c-26.272 73.488-96.352 126.32-178.768 126.32-49.264 0-95.744-19.216-130.704-52.448-54.672 55.008-128.144 86.128-207.216 86.128-161.552 0-293.008-131.44-293.008-293.024 0-155.28 121.488-282.352 274.352-292.064 1.616-0.24 3.008-0.944 4.688-0.944h531.568c0.736 0 1.344 0.368 2.048 0.416 0.704-0.048 1.344-0.416 2.048-0.416 114.432 0 207.536 96.256 207.536 214.56 0 116.704-94.928 211.664-211.632 211.664-0.32-0.016-0.576-0.192-0.912-0.192zM957.28 364.512c0-82.128-63.664-148.944-141.92-148.944-0.704 0-1.344-0.368-2.048-0.416-0.704 0.048-1.312 0.416-2.048 0.416h-517.6c-125.392 0-227.408 102-227.408 227.408 0 125.392 102.016 227.408 227.408 227.408 71.856 0 138.016-32.912 181.456-90.288 1.024-1.392 2.56-2.16 3.776-3.344 1.344-1.28 2.32-2.88 3.904-3.952 0.352-0.24 0.768-0.24 1.12-0.464 2.144-1.344 4.48-2.048 6.864-2.848 1.664-0.56 3.232-1.408 4.928-1.68 2.592-0.448 5.168-0.176 7.792 0 1.504 0.112 3.008-0.080 4.512 0.24 2.592 0.56 4.992 1.824 7.472 3.040 1.376 0.672 2.816 1.088 4.096 1.984 0.48 0.304 1.024 0.368 1.472 0.704 2.192 1.616 3.536 3.792 5.12 5.792 0.64 0.8 1.584 1.264 2.192 2.128 23.184 34.448 61.76 55.024 103.216 55.024 68.56 0 124.368-55.792 124.368-124.384 0-18.112 14.672-32.816 32.8-32.816 17.136 0 30.8 13.296 32.24 30.048 75.936-5.104 136.288-67.84 136.288-145.056z" />
<glyph unicode="&#xe618;" glyph-name="comment-bubble" d="M0.912 7.76c1.984-9.312 9.456-19.296 17.904-23.792 5.616-2.992 12.048-4.496 19.072-4.496 41.776 0 211.504 87.68 317.472 144.72 55.712-17.744 90.832-18.592 153.808-18.592h3.648c281.888 0 511.184 180.016 511.184 401.296 0 221.264-229.296 401.28-511.184 401.28-281.824 0-511.168-180.016-511.168-401.28 0-104.336 52.16-204.992 143.952-279.456-14.016-20.96-42.048-56.448-62.176-81.936-72.528-91.824-87.632-113.792-82.512-137.744zM134.496 105.712c70.112 88.752 86.144 111.84 82.928 135.088-1.216 8.624-7.024 18.576-14.096 23.744-88.192 64.224-136.784 150.32-136.784 242.336 0 185.712 200.224 336.832 446.272 336.832 246.080 0 446.272-151.104 446.272-336.832 0-185.744-200.192-336.864-446.272-336.864h-3.648c-63.808 0-91.824 0.768-146.224 19.6-8.688 3.008-18.192 2.256-26.256-2.16-78.56-42.48-167.776-87.872-229.088-116 9.296 11.984 18.752 23.952 26.896 34.256z" />
<glyph unicode="&#xe619;" glyph-name="comment-square" d="M74.064 191.216c0.064 0 0.192 0 0.256 0 3.136-1.504 10.288-12.464 9.536-30.784l-6.704-158.096c-0.944-22.688 4.416-40.256 15.92-52.224 8.768-9.088 20.56-14.112 33.248-14.112 16.304 0 32.528 7.968 48.336 23.68l195.952 195.472c18.8 18.784 60.272 35.872 86.912 35.872h470.176c53.12 0 96.336 43.056 96.336 96v512.848c0 52.944-43.2 96.016-96.336 96.016h-831.392c-53.12 0-96.304-43.072-96.304-96.016v-512.848c0-53.712 32.944-95.808 74.064-95.808zM64.192 799.872c0 17.664 14.384 32 32.112 32h831.376c17.728 0 32.128-14.336 32.128-32v-512.848c0-17.664-14.384-32-32.128-32h-470.176c-44.176 0-101.072-23.472-132.336-54.624l-183.088-182.656 5.92 140c1.248 30.256-8.144 58.16-25.888 76.56-12.752 13.28-29.232 20.624-45.664 20.624-0.128 0-0.256 0-0.368 0-3.392 1.28-11.888 12.72-11.888 32.096v512.848z" />
<glyph unicode="&#xe61a;" glyph-name="comment-txt-square" d="M93.904-49.84c8.752-9.136 20.576-14.16 33.248-14.16 16.288 0 32.544 7.984 48.336 23.712l195.904 195.76c18.88 18.816 60.304 35.936 86.912 35.936h470.224c53.12 0 96.32 43.12 96.32 96.144v513.632c0 53.024-43.184 96.16-96.32 96.16h-831.392c-53.12 0-96.32-43.12-96.32-96.16v-513.632c0-53.792 32.976-95.968 74.048-95.968 0.144 0 0.208 0 0.336 0 3.088-1.504 10.272-12.464 9.488-30.816l-6.672-158.336c-0.976-22.72 4.368-40.288 15.888-52.272zM77.264 255.44c-0.096 0-0.224 0-0.336 0-3.36 1.28-11.904 12.72-11.904 32.128v513.616c0 17.68 14.416 32.048 32.112 32.048h831.376c17.68 0 32.080-14.352 32.080-32.048v-513.632c0-17.664-14.384-32.048-32.080-32.048h-470.208c-44.144 0-100.992-23.504-132.288-54.704l-183.104-182.928 5.92 140.208c1.264 30.304-8.192 58.256-25.856 76.688-12.816 13.312-29.232 20.672-45.712 20.672zM189.664 666.224h646.256c17.712 0 32.128 14.336 32.128 32.048s-14.4 32.048-32.128 32.048h-646.256c-17.68 0-32.096-14.336-32.096-32.048s14.416-32.048 32.096-32.048zM189.664 505.968h646.256c17.712 0 32.128 14.32 32.128 32.032s-14.4 32.064-32.128 32.064h-646.256c-17.68 0-32.096-14.336-32.096-32.064s14.416-32.032 32.096-32.032zM189.664 345.056h452.368c17.712 0 32.128 14.336 32.128 32.064s-14.4 32.064-32.128 32.064h-452.368c-17.68 0-32.096-14.336-32.096-32.064s14.416-32.064 32.096-32.064z" />
<glyph unicode="&#xe61b;" glyph-name="comments-bubble" d="M18.752-25.024c3.904-2.064 8.144-4.336 16.448-4.336 26.4 0.032 93.904 22.656 321.536 145.472 13.568-3.056 21.072-5.344 31.392-8.528l15.312-4.624c17.296-4.992 35.184 4.784 40.256 21.872 5.024 17.024-4.816 34.944-21.952 39.968l-14.48 4.336c-13.68 4.176-24.432 7.504-48.992 12.464-7.52 1.568-15.264 0.384-21.984-3.248-78.528-42.48-167.584-87.824-228.848-115.952 9.28 11.952 18.752 23.936 26.864 34.224 70 88.688 86.016 111.776 82.8 135.008-1.184 8.608-7.008 18.544-14.048 23.712-88.064 64.192-136.592 150.208-136.592 242.176 0 185.6 199.92 336.592 445.648 336.592s445.648-150.992 445.648-336.576c0-17.808 14.528-32.224 32.384-32.224 17.888 0 32.416 14.4 32.416 32.224 0 221.088-229.008 400.992-510.48 400.992s-510.432-179.904-510.432-400.992c0-104.272 52.048-204.848 143.712-279.248-13.952-20.96-41.984-56.432-62.080-81.904-72.384-91.744-87.488-113.68-82.384-137.632 1.968-9.312 9.44-19.28 17.856-23.776zM1021.824 245.552c0 117.568-119.792 213.2-267.040 213.2-147.232 0-267.024-95.648-267.024-213.2 0-114.208 112.992-207.728 254.448-213.008 27.168-22.496 107.28-78.976 243.888-96.288 1.36-0.16 2.864-0.256 4.224-0.256 11.648 0 22.992 6.48 28.752 16.512 11.344 19.6 4.352 31.392-34.192 96.832-9.152 15.552-22.576 38.4-30.896 53.904 43.408 38.848 67.84 89.616 67.84 142.304zM896.752 139.936c-28.208-20.512-14.224-44.288 32.176-123.088 0.96-1.632 1.888-3.216 2.928-4.88-102.832 26.16-153.6 74.784-154.096 75.248-6.080 6.064-14.368 9.504-22.976 9.504-111.488 0-202.192 66.768-202.192 148.832 0 82.048 90.704 148.8 202.192 148.8 111.504 0 202.24-66.752 202.24-148.8-0.016-39.776-21.456-77.312-60.272-105.616z" />
<glyph unicode="&#xe61c;" glyph-name="computer" d="M928.032 852.144h-832.064c-52.912 0-95.968-43.056-95.968-96v-511.584c0-52.944 43.056-96 95.968-96h262.128l-65.408-169.008c-3.808-9.84-2.528-20.944 3.44-29.664 5.968-8.688 15.84-13.904 26.4-13.904h377.936c10.496 0 20.336 5.152 26.32 13.808 6 8.624 7.344 19.664 3.632 29.504l-63.936 169.264h261.568c52.912 0 95.968 43.056 95.968 96v511.584c-0.016 52.928-43.072 96-95.984 96zM654.192 0h-284.976l57.472 148.576h171.392l56.112-148.576zM960 244.576c0-17.664-14.336-32-31.968-32h-832.064c-17.632 0-31.968 14.336-31.968 32v511.568c0 17.648 14.336 32 31.968 32h832.064c17.632 0 31.968-14.336 31.968-32v-511.568z" />
<glyph unicode="&#xe61f;" glyph-name="cross-circle" d="M741.68 672.336c-12.464 12.48-32.688 12.48-45.136 0l-185.504-185.456-185.456 185.456c-12.464 12.48-32.704 12.48-45.152 0-12.448-12.464-12.448-32.688 0-45.168l183.984-184-183.872-183.824c-12.448-12.464-12.448-32.688 0-45.152 6.272-6.256 14.448-9.376 22.624-9.376s16.32 3.12 22.576 9.376l185.296 185.264 185.328-185.264c6.24-6.256 14.384-9.376 22.56-9.376 8.192 0 16.384 3.12 22.592 9.376 12.464 12.464 12.464 32.688 0 45.152l-183.824 183.808 183.984 184c12.48 12.496 12.48 32.704 0 45.184zM511.040 960c-281.76 0-511.040-229.248-511.040-511.056 0-281.776 229.28-511.040 511.040-511.040 281.776 0 511.056 229.264 511.056 511.040 0.016 281.808-229.264 511.056-511.056 511.056zM511.040 1.76c-246.576 0-447.168 200.608-447.168 447.168 0 246.592 200.592 447.184 447.168 447.184 246.592 0 447.184-200.592 447.184-447.184 0.016-246.56-200.576-447.168-447.184-447.168z" />
<glyph unicode="&#xe620;" glyph-name="cross2" d="M463.056 451.424l-453.248-453.248c-12.592-12.592-12.592-32.992 0-45.584 6.288-6.304 14.544-9.44 22.784-9.44 8.256 0 16.496 3.136 22.784 9.44l456.656 456.656 456.656-456.656c6.304-6.304 14.544-9.44 22.784-9.44s16.496 3.136 22.784 9.44c12.592 12.592 12.592 32.992 0 45.584l-453.232 453.248 453.536 453.568c12.592 12.592 12.592 32.992 0 45.584-12.592 12.576-32.992 12.576-45.568 0l-456.944-456.976-456.992 456.96c-12.592 12.576-32.976 12.576-45.568 0-12.592-12.592-12.592-32.992 0-45.584l453.568-453.552z" />
<glyph unicode="&#xe623;" glyph-name="document-add" d="M112.848 26.608c0-36.016 14.208-57.040 26.128-68.352 21.744-20.64 48.976-22.24 56.176-22.24 0.928 0 1.52 0.032 1.712 0.048h621.92c32.72 0 52.992 13.472 64.24 24.768 25.84 26.032 26.336 62 26.32 65.76v724.56c0 4.24-0.864 8.432-2.496 12.416-1.664 3.984-4.048 7.584-7.056 10.592l-176 176.016c-3.008 3.008-6.592 5.392-10.608 7.040-3.968 1.648-8.192 2.512-12.4 2.512h-503.92c-32.608 0-51.984-14.24-62.48-26.176-24.048-27.328-22.512-65.52-21.536-76.24v-830.704zM684.48 894.72h2.816l149.168-149.184-119.904-0.032c0.064-0.192-13.84-0.192-22.816 8.32-6.144 5.856-9.264 15.888-9.264 29.824v111.072zM183.2 890.624c0.896 1.024 3.584 4.096 13.664 4.096h422.608v-111.072c0-40.416 16.048-64.144 29.472-76.944 25.6-24.336 58.304-26.224 67.12-26.224 1.104 0 1.824 0.032 2.128 0.048h126.128v-653.712c-0.56-25.728-19.376-25.728-25.536-25.728l-623.648-0.048c-0.096 0-7.296 0.48-11.424 4.4-5.088 4.832-5.856 15.328-5.856 21.168v832.384c0 1.392-0.096 2.784-0.256 4.16-0.688 5.408-0.080 21.008 5.6 27.472zM280.368 182.064h81.712v-81.696c0-17.952 14.544-32.512 32.512-32.512 17.952 0 32.512 14.56 32.512 32.512v81.696h81.712c17.968 0 32.496 14.56 32.496 32.512s-14.528 32.512-32.496 32.512h-81.712v81.712c0 17.952-14.56 32.512-32.512 32.512-17.968 0-32.512-14.56-32.512-32.512v-81.712h-81.712c-17.968 0-32.496-14.56-32.496-32.512s14.528-32.512 32.496-32.512z" />
<glyph unicode="&#xe624;" glyph-name="document-remove" d="M141.712-41.76c21.744-20.64 48.96-22.24 56.144-22.24 0.928 0 1.52 0.032 1.712 0.048h621.888c32.72 0 52.992 13.472 64.224 24.768 25.84 26.032 26.336 61.984 26.32 65.76v724.512c0 4.24-0.864 8.448-2.496 12.416-1.664 3.984-4.032 7.6-7.040 10.592l-176 176c-3.024 3.008-6.624 5.392-10.608 7.040-3.968 1.664-8.208 2.512-12.416 2.512h-503.856c-32.592 0-51.952-14.24-62.448-26.176-24.064-27.328-22.528-65.504-21.552-76.24v-830.656c0-36 14.192-57.040 26.128-68.336zM687.184 894.656h2.8l149.168-149.168-119.904-0.032c0.016-0.192-13.84-0.192-22.8 8.32-6.16 5.856-9.264 15.888-9.264 29.824v111.056zM185.92 890.544c0.896 1.024 3.616 4.112 13.664 4.112h422.592v-111.072c0-40.4 16.032-64.128 29.472-76.928 25.584-24.336 58.304-26.224 67.088-26.224 1.104 0 1.84 0.016 2.144 0.032h126.128v-653.68c-0.576-25.728-19.376-25.728-25.536-25.728l-623.616-0.048c-0.096 0-7.28 0.48-11.44 4.4-5.056 4.816-5.808 15.328-5.808 21.168v832.336c0 1.408-0.096 2.768-0.272 4.144-0.688 5.424-0.080 21.040 5.584 27.488zM283.104 182.048h228.416c17.984 0 32.512 14.56 32.512 32.512 0 17.936-14.528 32.496-32.512 32.496h-228.416c-17.968 0-32.512-14.56-32.512-32.496 0-17.952 14.544-32.512 32.512-32.512z" />
<glyph unicode="&#xe625;" glyph-name="document" d="M113.904 27.728c0-35.984 14.192-56.992 26.112-68.304 21.728-20.608 48.928-22.208 56.128-22.208 0.928 0 1.52 0.032 1.696 0.048h621.376c32.688 0 52.944 13.456 64.176 24.752 25.808 26 26.32 61.936 26.288 65.696v723.92c0 4.24-0.864 8.432-2.496 12.4-1.664 3.984-4.032 7.584-7.040 10.576l-175.856 175.856c-3.008 3.008-6.608 5.392-10.592 7.040-3.968 1.648-8.192 2.496-12.384 2.496h-503.472c-32.576 0-51.936-14.224-62.416-26.144-24.016-27.296-22.48-65.456-21.52-76.176v-829.952zM685.024 895.056h2.8l149.040-149.040-119.808-0.032c-0.064-0.192-13.808-0.192-22.752 8.32-6.176 5.856-9.28 15.872-9.28 29.808v110.944zM184.208 890.976c0.896 1.008 3.584 4.096 13.648 4.096h422.24v-110.976c0-40.384 16.016-64.096 29.44-76.88 25.568-24.32 58.24-26.208 67.056-26.208 1.088 0 1.824 0.032 2.112 0.048h126.032v-653.12c-0.56-25.712-19.36-25.712-25.504-25.712l-623.072-0.048c-0.096 0-7.296 0.48-11.44 4.4-5.072 4.816-5.824 15.328-5.824 21.152v831.616c0 1.392-0.096 2.784-0.272 4.16-0.704 5.424-0.112 21.008 5.584 27.472z" />
<glyph unicode="&#xe626;" glyph-name="download2" d="M1024 292.272c0 21.52-17.424 38.96-38.96 38.96-21.552 0-38.976-17.44-38.976-38.96v-225.84h-866.928v225.84c0 21.52-17.424 38.96-38.992 38.96-21.536 0-38.96-17.44-38.96-38.96v-248.56c0-2.88 1.072-5.408 1.648-8.112-0.56-2.704-1.648-5.248-1.648-8.112 0-21.52 17.424-38.976 38.96-38.976h944.896c21.536 0 38.96 17.456 38.96 38.976 0 2.864-1.024 5.408-1.632 8.112 0.608 2.704 1.632 5.232 1.632 8.096v248.576zM515.040 912.528c-21.536 0-38.992-17.456-38.992-38.976v-569.216l-169.68 169.712c-15.216 15.216-39.872 15.216-55.088 0s-15.216-39.888 0-55.104l236.224-236.224c7.6-7.616 17.584-11.408 27.552-11.408 9.952 0 19.92 3.808 27.552 11.408l236.224 236.224c15.216 15.216 15.216 39.888 0 55.104-15.232 15.216-39.888 15.216-55.088 0l-169.744-169.712v569.216c0 21.52-17.424 38.976-38.96 38.976z" />
<glyph unicode="&#xe627;" glyph-name="dribbble" d="M512 960c-282.32 0-512-229.68-512-512s229.68-512 512-512 512 229.68 512 512-229.68 512-512 512zM960 447.936c-124.32 32.4-232.816 33.712-326.432 15.936-13.68 31.504-27.744 61.904-42 90.88 98.256 39.504 191.312 97.664 263.008 181.408 65.68-77.968 105.424-178.48 105.424-288.16 0-0.032 0-0.032 0-0.064zM809.968 781.632c-65.632-78.368-154.16-132.064-248-168.784-65.84 124.784-130.128 218.656-165.712 267.44 36.992 9.936 75.68 15.712 115.744 15.712 114.464 0 218.688-43.504 297.968-114.368zM332.752 858.288c28.88-38.848 96.816-134.72 167.408-267.12-174.848-54.464-353.84-57.376-427.44-55.712 28.816 144.976 127.84 264.864 260.032 322.832zM64 448c0 7.904 0.816 15.6 1.184 23.408 11.968-0.4 26.752-0.72 44.128-0.72 93.504 0 258.688 9.184 420.912 61.968 13.376-26.976 26.624-55.12 39.6-84.368-215.12-64.72-339.68-228.128-387.024-303.056-73.488 79.824-118.8 185.984-118.8 302.768zM229.744 100.528c35.008 60.912 149.248 230.128 364.592 290.064 43.472-106.944 80.752-225.808 101.536-350.688-56.192-25.408-118.304-39.904-183.872-39.904-106.944 0-205.12 37.776-282.256 100.528zM755.344 72.368c-21.472 118.368-56.464 230.496-96.912 332.032 84.944 13.472 183.376 9.664 296.32-21.344-19.008-130-93.696-241.968-199.408-310.688z" />
<glyph unicode="&#xe628;" glyph-name="drop2" d="M729.568 470.368c-183.76 329.296-190.56 443.52-190.672 446.528-0.192 17.632-14.464 31.936-32.176 32.016-0.064 0-0.128 0-0.192 0-8.976 0-17.088-3.696-22.944-9.616-6.192-5.648-10.384-13.424-10.672-22.352-0.032-1.104-5.312-114.432-190.672-446.592-0.032-0.064-0.032-0.128-0.064-0.176s-0.064-0.080-0.112-0.128c-31.072-57.136-66.8-132.496-66.8-208.672 0.016-179.408 130.4-325.376 290.64-325.376s290.624 145.968 290.624 325.408c0 76.176-35.712 151.536-66.8 208.672-0.032 0.048-0.064 0.080-0.096 0.128s-0.032 0.112-0.064 0.16zM505.904 0.704c-124.576 0-225.904 116.944-225.904 260.688 0 61.456 31.344 127.056 58.736 177.44v0c91.312 163.584 140.432 275.824 167.168 350.64 26.736-74.8 75.856-187.040 167.168-350.64v0c27.392-50.384 58.736-115.984 58.736-177.44 0-143.728-101.328-260.688-225.904-260.688z" />
<glyph unicode="&#xe629;" glyph-name="earth" d="M515.68 960c-280.128 0-508.016-227.904-508.016-508.016s227.888-508.032 508.016-508.032 508.016 227.904 508.016 508.016-227.872 508.032-508.016 508.032zM181.312 162.96c-48.176 55.648-82.896 123.2-98.624 197.808 3.632 0.816 7.232 1.952 10.48 4.064 20.992 13.424 59.76 28.176 75.024 19.856 8.208-4.496 13.104-21.488 13.104-45.424v-176.304zM515.68 9.44c-101.648 0-195.104 34.8-269.92 92.64 0.304 1.744 1.008 3.328 1.008 5.136v232.048c0 51.136-15.856 85.744-47.12 102.864-42.992 23.488-97.968 1.312-125.344-12.848-0.368 7.552-1.152 15.024-1.152 22.688 0 244.032 198.512 442.544 442.528 442.544s442.544-198.512 442.544-442.528-198.512-442.544-442.544-442.544zM912.176 596.496c-6.24 22.592-28.976 42.064-71.984 77.392-23.632 19.392-72.752 59.728-76.336 75.28-6.272 40.752-44.8 82.416-282.848 82.416l-22.656-0.128c-3.808-0.048-7.632-0.752-11.2-2.112-4.816-1.808-117.216-45.408-131.552-150.912-8.128-59.328-8.64-75.92-8.496-79.136 0-57.904 40.928-167.408 195.792-167.408 11.6 0 23.664 0.624 36.192 1.856 16.496-36.864 31.488-77.536 31.488-92.080 0-3.136 0.48-6.288 1.36-9.312 9.248-31.136 21.536-90.848 15.328-118.56-0.64-2.864-0.912-5.808-0.768-8.736 2.352-48.864 26.56-98.176 75.392-98.176 31.424 0 64.784 21.072 104.992 66.32 3.136 3.504 5.44 7.68 6.848 12.208 7.024 23.104 66.32 223.264 46.176 332.992 2.32 7.312 5.424 18.304 8.192 31.76 2.864-0.512 5.84-1.040 8.688-1.616 11.008-2.032 22.32-4.176 32.496-4.176h0.032c20.16 0 31.088 8.816 36.736 16.224 4.4 5.776 11.040 18.16 6.128 35.904zM766.88 580.784c-3.648-27.952-11.392-48.384-11.408-48.496-2.4-6.224-2.848-13.024-1.312-19.504 17.696-73.328-21.792-236.016-41.024-301.36-32.208-34.992-47.6-38.64-50.672-39.008-4.208 4-8.928 19.040-10.32 32.272 8.576 49.088-10.752 122.784-16.304 142.336-3.024 42.752-40.096 120.768-47.76 136.544-6.288 12.912-20.256 20.256-34.4 18.032-18.064-2.784-35.136-4.192-50.784-4.192-125.008 0-130.128 91.728-130.32 102.144 0 0.56 0.256 14.080 7.856 70.064 7.76 56.992 67.568 88.384 85.040 96.4l15.52 0.096c176.848 0 213.36-24.752 218.544-29.296 6.832-35.488 43.856-68.176 99.104-113.536 2.416-2 5.056-4.144 7.728-6.368-25.872-2.944-37.472-20.704-39.488-36.128z" />
<glyph unicode="&#xe62a;" glyph-name="envelope" d="M928 794.816h-832c-52.944 0-96-43.056-96-96v-522.816c0-52.944 43.056-96 96-96h832c52.944 0 96 43.056 96 96v522.816c0 52.928-43.056 96-96 96zM912.288 730.816l-400.288-288.688-400.288 288.688h800.576zM928 144h-832c-17.664 0-32 14.336-32 32v510.288l429.28-309.6c5.6-4.032 12.16-6.032 18.72-6.032s13.12 2 18.72 6.032l429.28 309.6v-510.288c0-17.664-14.336-32-32-32z" />
<glyph unicode="&#xe62b;" glyph-name="equal-circle" d="M744.784 383.808h-452.56c-17.68 0-32-14.336-32-32s14.32-32 32-32h452.56c17.68 0 32 14.336 32 32s-14.32 32-32 32zM744.784 578.176h-452.56c-17.68 0-32-14.336-32-32s14.32-32 32-32h452.56c17.68 0 32 14.336 32 32s-14.32 32-32 32zM511.968 960c-282.304 0-511.968-229.68-511.968-512s229.664-512 511.968-512c282.352 0 512.032 229.68 512.032 512s-229.68 512-512.032 512zM511.968 0c-246.992 0-447.968 200.976-447.968 448s200.976 448 447.968 448c247.040 0 448.032-200.976 448.032-448s-200.992-448-448.032-448z" />
<glyph unicode="&#xe62c;" glyph-name="exclamation-circle" d="M511.024 960c-281.776 0-511.024-229.264-511.024-511.056s229.248-511.056 511.024-511.056c281.84 0 511.088 229.264 511.088 511.056s-229.232 511.056-511.088 511.056zM511.024 1.744c-246.544 0-447.152 200.608-447.152 447.184s200.608 447.2 447.152 447.2c246.576 0 447.216-200.608 447.216-447.184s-200.624-447.2-447.216-447.2zM555.6 134.816c0-19.847-16.089-35.936-35.936-35.936s-35.936 16.089-35.936 35.936c0 19.847 16.089 35.936 35.936 35.936s35.936-16.089 35.936-35.936zM519.664 232.016c17.648 0 31.936 14.304 31.936 31.936v460.336c0 17.632-14.304 31.936-31.936 31.936-17.664 0-31.952-14.32-31.952-31.936v-460.336c-0.016-17.632 14.272-31.936 31.952-31.936z" />
<glyph unicode="&#xe62d;" glyph-name="exclamation-triangle" d="M549.472 157.728c0-19.935-16.161-36.096-36.096-36.096s-36.096 16.161-36.096 36.096c0 19.935 16.161 36.096 36.096 36.096s36.096-16.161 36.096-36.096zM481.28 559.808v-276.928c0-17.712 14.352-32.080 32.096-32.080s32.096 14.352 32.096 32.080v276.928c0 17.712-14.352 32.096-32.096 32.096s-32.096-14.368-32.096-32.096zM1020.256 12.256l-478.56 898.432c-11.152 20.928-45.504 20.928-56.64 0l-478.544-898.432c-5.296-9.952-4.992-21.952 0.816-31.6 5.792-9.68 16.24-15.6 27.52-15.6h957.056c11.28 0 21.712 5.904 27.536 15.6 5.776 9.648 6.096 21.648 0.816 31.6zM88.304 29.248l425.072 798.096 425.088-798.096h-850.16z" />
<glyph unicode="&#xe62e;" glyph-name="expand2" d="M992 240c-17.68 0-32-14.336-32-32v-208h-208c-17.68 0-32-14.32-32-32s14.32-32 32-32h240c17.68 0 32 14.32 32 32v240c0 17.664-14.32 32-32 32zM272 0h-208v208c0 17.664-14.32 32-32 32s-32-14.336-32-32v-240c0-17.68 14.32-32 32-32h240c17.68 0 32 14.32 32 32s-14.32 32-32 32zM272 960.016h-240c-17.68 0-32-14.336-32-32v-240c0-17.664 14.32-32 32-32s32 14.336 32 32v208h208c17.68 0 32 14.336 32 32s-14.32 32-32 32zM992 960.016h-240c-17.68 0-32-14.336-32-32s14.32-32 32-32h208v-208c0-17.664 14.32-32 32-32s32 14.336 32 32v240c0 17.664-14.32 32-32 32z" />
<glyph unicode="&#xe630;" glyph-name="eye2" d="M0.352 441.856c0.272-1.392 1.024-2.624 1.52-3.952 0.768-2.4 1.264-4.88 2.672-7.104 7.744-12.32 193.072-301.904 479.52-316.688 7.552-0.368 15.072-0.576 22.624-0.576 175.504 0 347.296 105.696 510.896 314.512 0.752 0.976 0.96 2.128 1.584 3.152 0.896 1.424 1.552 2.864 2.224 4.4 0.944 2.272 1.776 4.432 2.192 6.816 0.384 1.936 0.4 3.84 0.416 5.84-0.016 2-0.032 3.904-0.416 5.84-0.416 2.384-1.248 4.56-2.192 6.832-0.672 1.536-1.328 2.976-2.224 4.4-0.624 1.008-0.816 2.176-1.584 3.152-170.624 217.776-350.192 323.12-533.52 313.936-286.448-14.784-471.776-304.368-479.52-316.688-1.408-2.24-1.904-4.704-2.672-7.088-0.496-1.328-1.248-2.576-1.52-3.952-0.432-2.144-0.224-4.256-0.208-6.416-0.016-2.176-0.224-4.272 0.208-6.416zM512.032 682.928c111.76 0 202.672-90.928 202.672-202.688s-90.912-202.672-202.672-202.672c-111.776 0-202.672 90.912-202.672 202.672s90.912 202.688 202.672 202.688zM328.112 674.16c-51.44-48.8-83.712-117.6-83.712-193.936 0-147.568 120.080-267.648 267.648-267.648 147.552 0 267.632 120.080 267.632 267.648 0 70.816-27.824 135.104-72.896 183.008 81.856-44.544 163.312-116.336 243.584-214.992-151.664-186.4-307.408-277.312-462.624-269.28-215.792 10.976-373.712 209.744-416.368 269.312 31.216 43.616 124.304 161.248 256.736 225.888z" />
<glyph unicode="&#xe631;" glyph-name="facebook" d="M804 927.808c-4.112 1.312-101.856 32.192-202.176 32.192-144.64 0-225.488-65.568-227.584-185.184v-208.528h-125.92c-8.56 0-16.784-3.44-22.816-9.536-6-6.128-9.312-14.368-9.184-22.944l2.816-190.096c0.256-17.504 14.496-31.536 32-31.536h123.12v-344.176c0-17.68 14.32-32 32-32h186.768c17.664 0 32 14.32 32 32v344.192h94.496c14.624 0 27.392 9.904 31.008 24.096l48.544 190.096c2.448 9.568 0.336 19.712-5.728 27.536s-15.392 12.368-25.264 12.368h-143.12l-0.048 125.184c3.28 4 16.976 12.16 51.168 12.16 29.008 0 66.112-5.744 110.208-17.152 9.584-2.368 19.776-0.368 27.6 5.712 7.824 6.032 12.4 15.376 12.4 25.28v179.872c-0.016 13.904-9.024 26.256-22.288 30.464zM762.272 757.712c-32.592 6.592-61.488 9.904-86.208 9.904-109.584 0-114.88-66.496-115.104-71.28v-162.064c0-17.68 14.336-32 32-32h133.904l-32.208-126.096h-101.648c-17.664 0-32-14.32-32-32v-344.176h-122.768v344.192c0 17.68-14.336 32-32 32h-123.6l-1.872 126.096h125.472c17.664 0 32 14.32 32 32v239.968c0.928 52.272 18.896 121.744 163.584 121.744 63.424 0 127.664-14.288 160.432-22.88v-115.408z" />
<glyph unicode="&#xe632;" glyph-name="film-play" d="M61.632-63.44h899.472c17.68 0 32 14.336 32 32v957.904c0 17.664-14.32 32-32 32h-899.472c-17.68 0-32-14.336-32-32v-957.904c0-17.664 14.304-32 32-32zM394.32 798.736v95.728h236.128v-95.728h-236.128zM925.28 734.736c1.344 0 2.496 0.608 3.792 0.752v-564.848c-1.296 0.16-2.448 0.768-3.792 0.768h-829.264c-0.848 0-1.568-0.432-2.368-0.496v564.304c0.816-0.080 1.536-0.48 2.368-0.48h829.264zM629.472 107.392v-106.816h-236.128v106.816h236.128zM93.648 107.872c0.816-0.064 1.536-0.48 2.368-0.48h233.328v-106.816h-235.696v107.296zM693.488 0.576v106.816h231.792c1.344 0 2.496 0.624 3.792 0.768v-107.6h-235.584zM929.072 797.968c-1.296 0.16-2.448 0.768-3.792 0.768h-230.848v95.728h234.64v-96.496zM330.304 894.464v-95.728h-234.288c-0.848 0-1.568-0.4-2.368-0.48v96.208h236.656zM349.088 225.744c4.752-2.576 9.968-3.824 15.152-3.824 6.16 0 12.336 1.776 17.648 5.296l297.216 196.208c8.976 5.92 14.368 15.968 14.368 26.704 0 10.752-5.408 20.784-14.368 26.72l-297.216 196.224c-9.824 6.496-22.448 7.072-32.8 1.488-10.368-5.584-16.848-16.4-16.848-28.192v-392.448c0.016-11.776 6.48-22.592 16.848-28.176zM396.256 586.88l207.104-136.752-207.104-136.72v273.472z" />
<glyph unicode="&#xe633;" glyph-name="flag2" d="M97.792-62.768c18.688 0 33.808 15.136 33.808 33.808v955.152c0.016 18.672-15.12 33.808-33.808 33.808-18.64 0-33.808-15.136-33.808-33.808v-955.152c0-18.672 15.168-33.808 33.808-33.808zM478.432 911.136c-148.32 86.864-261.968 26.24-301.36-17.936-12.416-13.952-11.2-35.312 2.736-47.728s35.296-11.168 47.744 2.736c0.768 0.848 78.592 85.44 216.336 4.816 12.064-7.296 269.024-159.552 469.264-63.072-13.728-57.568-44.912-137.488-115.568-188.304-85.12-61.248-208.848-67.76-365.904-19.872-7.28 2.592-179.104 62.752-260.992-36.368-11.888-14.384-9.904-35.712 4.48-47.616 14.4-11.872 35.728-9.872 47.616 4.528 42.912 51.904 148.928 28.992 187.616 15.28 76.4-23.312 146.224-34.96 209.216-34.96 85.584 0 158.464 21.52 217.984 64.464 147.328 106.4 153.6 303.168 153.792 311.504 0.32 13.376-7.296 25.696-19.424 31.376-12.096 5.712-26.448 3.712-36.544-5.056-167.104-145.12-453.744 24.272-456.992 26.208z" />
<glyph unicode="&#xe634;" glyph-name="glasses-classic" d="M820.976 780.384c-5.776 10.992-17.152 16.848-28.784 16.672-13.12 0.304-25.712-7.28-30.688-20.288l-47.264-124.88c-6.224-16.496 2.096-34.912 18.592-41.152 3.696-1.424 7.52-2.096 11.28-2.096 12.896 0 25.040 7.872 29.872 20.64l22.784 60.24 66.784-126.384c-22.448 7.296-46.336 11.344-71.168 11.344-97.2 0-180.416-60.512-214.368-145.776-61.216 24.608-109.136 11.104-133.216 0.112-33.984 85.2-117.168 145.664-214.352 145.664-25.328 0-49.616-4.24-72.4-11.792l67.008 126.848 22.8-60.24c4.832-12.752 16.992-20.64 29.872-20.64 3.744 0 7.568 0.672 11.28 2.096 16.48 6.24 24.8 24.656 18.576 41.152l-47.264 124.88c-4.928 12.992-17.488 20.576-30.608 20.288-11.664 0.208-23.040-5.664-28.864-16.672l-166.592-315.344c-0.128-0.256-0.096-0.512-0.224-0.752-21.664-35.168-34.416-76.384-34.416-120.656 0-127.28 103.536-230.816 230.816-230.816 127.296 0 230.832 103.536 230.832 230.816 0 7.232-0.432 14.368-1.088 21.456 1.696 0.8 3.456 1.408 5.040 2.544 0.4 0.24 38.736 25.952 97.504-1.824-0.688-7.312-1.12-14.704-1.12-22.176 0-127.28 103.536-230.816 230.8-230.816 127.296 0 230.832 103.536 230.832 230.816 0 48.096-14.832 92.8-40.112 129.824l-162.144 306.912zM230.416 176.688c-92.080 0-166.976 74.912-166.976 166.976s74.896 166.96 166.976 166.96c92.064 0 166.976-74.896 166.976-166.96s-74.912-166.976-166.976-166.976zM792.368 176.688c-92.064 0-166.96 74.912-166.96 166.976s74.896 166.96 166.96 166.96c56.624 0 106.56-28.464 136.784-71.664l1.952-3.728c0.688-1.328 1.68-2.336 2.528-3.52 16.064-25.632 25.712-55.648 25.712-88.032 0.016-92.080-74.912-166.992-166.976-166.992z" />
<glyph unicode="&#xe636;" glyph-name="google-plus" d="M995.024 535.152h-69.168v69.136c0 15.088-12.224 27.328-27.344 27.328-15.088 0-27.312-12.24-27.312-27.328v-69.136h-69.12c-15.104 0-27.328-12.256-27.328-27.344s12.224-27.328 27.328-27.328h69.12v-69.136c0-15.104 12.224-27.344 27.312-27.344 15.12 0 27.344 12.24 27.344 27.344v69.136h69.168c15.104 0 27.328 12.24 27.328 27.328s-12.208 27.344-27.328 27.344zM695.984 535.152c-103.472-0.144-206.864-0.256-310.368 0.080-0.048 0-0.112 0-0.176 0-11.504 0-20.832-3.472-27.696-10.384-10.352-10.368-10.272-23.552-10.24-28.528 0.272-27.056 0.208-54.080 0.176-81.2l-0.032-32.64c0-27.84 12.832-40.864 40.432-40.864l40.816-0.016c32.816 0 65.696-0.048 98.736 0.080-0.304-0.592-0.608-1.232-0.912-1.856-9.328-19.52-24-36.848-44.8-52.928-26.176-15.792-52.4-24.896-80.176-27.76-63.664-6.432-115.456 13.248-158.384 60.64-14.528 16.064-26.336 36.464-36.464 61.92-12.48 41.696-12.272 80.624 0.336 118.208 11.168 30.736 27.664 55.92 50.416 77.056 65.824 61.28 166.976 63.808 230.272 5.824 12.592-11.536 32.736-15.36 49.648 2.672l21.168 21.184c21.712 21.792 43.392 43.52 65.488 65.152 8.448 8.352 12.512 17.68 12.144 27.76-0.592 15.104-11.168 24.048-14.448 26.832-87.84 75.632-191.44 104.512-308.352 85.92-80.848-12.912-151.6-50.72-210.256-112.272-25.664-26.816-45.168-54.176-59.488-83.28-3.584-6.768-7.904-15.232-8.976-17.488-30.336-65.584-40.928-135.52-31.568-207.808 5.648-43.952 18.256-84.256 36.768-118.672 23.568-48.992 57.312-91.040 100.288-124.992 70.672-55.792 149.376-83.792 234.992-83.792 35.104 0 71.376 4.704 108.72 14.144 54.864 13.888 103.024 40.24 141.984 77.248 22.688 19.344 42.272 43.040 59.776 72.544 47.616 80.288 63.504 170.368 48.544 275.408-0.992 7.472-6.848 31.808-38.368 31.808zM636.72 257.056c-14.272-23.968-29.856-43.008-48.848-59.216-32.912-31.248-72.544-52.912-117.808-64.336-111.904-28.304-208.112-8.944-294.352 59.104-36.128 28.496-64.432 63.776-84.784 106.080-16.032 29.808-26.176 62.528-30.992 100.080-7.968 61.504 1.024 120.912 26.72 176.496 0.464 0.944 1.376 2.8 2.544 5.104 1.072 1.52 2.064 3.136 2.832 4.88 0.976 2.064 1.936 4.128 2.928 6.192 1.664 3.12 3.024 5.728 3.616 6.816 0.384 0.72 0.784 1.488 1.088 2.24 11.28 20.592 26.080 40.384 44.928 60.144 49.872 52.336 109.776 84.4 177.968 95.312 93.28 14.944 173.664-4.368 245.472-59.344-16.624-16.464-33.184-33.056-49.712-49.632l-8.384-8.416c-85.296 63.632-209.152 56.528-291.136-19.792-29.056-27.024-51.008-60.416-65.44-99.968-16.496-49.168-16.864-100.816-0.336-155.712 13.472-34.336 28.736-60.24 48.032-81.6 55.296-61.040 125.040-87.616 206.608-79.104 36.336 3.744 71.792 16.096 105.344 36.624 0.832 0.48 1.632 1.040 2.4 1.648 28.8 21.952 49.312 46.336 62.816 74.512 5.984 12.48 9.904 24.88 13.424 36.56 1.504 4.992 6.032 20.080-4.208 33.696-6.864 9.152-16.832 12.992-31.232 13.552-42.4-0.336-84.848-0.288-127.248-0.288l-24.208 0.032v16.32c0.048 20.928 0.080 41.872 0 63.056 91.52-0.224 183.136-0.16 275.28-0.048 9.024-84.288-5.152-156.704-43.312-220.992z" />
<glyph unicode="&#xe637;" glyph-name="google" d="M509.856-64c-116.288 0-223.2 38.064-319.28 113.824-58.368 46.128-104.176 103.248-136.176 169.856-25.136 46.56-42.208 101.312-49.952 161.104-12.688 98.272 1.712 193.28 42.864 282.32 1.36 3.040 7.36 14.544 12.16 23.808 19.536 39.6 46.032 76.672 80.768 113.056 79.824 83.68 175.92 135.040 285.712 152.56 158.736 25.312 299.568-13.92 418.848-116.688 4.544-3.824 18.896-16.016 19.648-36.528 0.496-13.728-5.072-26.352-16.544-37.664-30.192-29.6-59.92-59.376-89.664-89.184l-28.048-28.080c-22.912-24.512-50.256-19.344-67.472-3.6-85.904 78.704-223.28 75.264-312.752-7.952-30.88-28.704-53.264-62.944-68.528-104.656-17.104-51.072-17.376-103.92-0.4-160.608 13.696-34.56 29.776-62.256 49.568-84.080 58.336-64.464 128.752-91.312 215.152-82.384 37.696 3.888 73.36 16.224 108.928 37.696 28.224 21.824 48.144 45.376 60.864 71.872 0.384 0.864 0.8 1.712 1.168 2.544-44.864-0.176-89.472-0.112-134.112-0.112l-55.408 0.048c-37.504 0-54.96 17.648-54.96 55.456l0.032 43.168c0.048 37.184 0.112 74.368-0.208 111.504-0.080 6.704-0.224 24.592 13.856 38.8 9.312 9.328 21.968 14.096 37.648 14.096 0.080 0 0.144 0 0.208 0 140.576-0.432 281.136-0.336 421.664-0.112 42.672 0 50.688-32.992 52.16-43.072 20.288-142.88-1.312-265.264-65.984-374.304-23.744-39.968-50.336-72.192-81.168-98.496-52.912-50.336-118.336-86.112-192.88-104.944-50.736-12.864-100-19.248-147.712-19.248zM121.168 637.472c-1.616-3.040-2.832-5.536-3.408-6.8-35.008-75.664-47.184-156.352-36.416-239.936 6.64-51.072 20.416-95.536 42.176-135.936 27.632-57.424 66.096-105.392 115.136-144.112 117.136-92.4 247.888-118.768 399.888-80.24 61.504 15.504 115.328 44.928 160.080 87.376 25.776 22.112 47.008 47.968 66.32 80.448 51.776 87.28 71.104 185.728 58.848 300.224-125.248-0.144-249.632-0.24-374.016 0.080 0.16-29.248 0.096-58.080 0.064-86.896l-0.064-20.992 32.928-0.032c57.648-0.048 115.264-0.16 172.912 0.368 19.84 0.032 33.088-6.064 42.384-18.448 13.888-18.48 7.696-39.040 5.68-45.792-4.496-14.992-9.984-32.4-18.208-49.568-18.368-38.336-46.224-71.504-85.312-101.296-1.056-0.8-2.208-1.552-3.328-2.272-46.24-28.288-93.072-44.512-143.056-49.712-111.28-11.52-205.584 24.576-280.72 107.472-26.272 29.072-46.992 64.304-65.264 110.848-22.432 74.624-21.92 144.784 0.528 211.584 19.552 53.68 49.344 99.056 88.832 135.808 111.424 103.536 279.76 113.248 395.536 26.896l10.64 10.672c22.752 22.784 45.472 45.584 68.336 68.176-97.536 74.672-206.88 100.88-333.488 80.608-92.624-14.8-173.952-58.384-241.808-129.536-25.6-26.768-45.68-53.68-61.024-81.696-0.448-0.992-0.944-1.936-1.424-2.896-0.768-1.424-2.704-5.056-4.976-9.344-1.36-2.816-2.64-5.584-3.936-8.4-1.104-2.384-2.4-4.608-3.84-6.656z" />
<glyph unicode="&#xe638;" glyph-name="hamburger-circle" d="M744.784 661.136h-452.56c-17.68 0-32-14.336-32-32s14.32-32 32-32h452.56c17.68 0 32 14.336 32 32s-14.32 32-32 32zM744.784 478.096h-452.56c-17.68 0-32-14.336-32-32s14.32-32 32-32h452.56c17.68 0 32 14.336 32 32s-14.32 32-32 32zM744.784 294.672h-452.56c-17.68 0-32-14.336-32-32s14.32-32 32-32h452.56c17.68 0 32 14.336 32 32s-14.32 32-32 32zM511.968 960c-282.304 0-511.968-229.68-511.968-512s229.664-512 511.968-512c282.352 0 512.032 229.68 512.032 512s-229.68 512-512.032 512zM511.968 0c-246.992 0-447.968 200.976-447.968 448s200.976 448 447.968 448c247.040 0 448.032-200.976 448.032-448s-200.992-448-448.032-448z" />
<glyph unicode="&#xe639;" glyph-name="hamburger" d="M36.032 795.664h941.936c17.984 0 32.544 14.56 32.544 32.544 0 17.968-14.56 32.544-32.544 32.544h-941.936c-17.984 0-32.544-14.576-32.544-32.544s14.56-32.544 32.544-32.544zM977.968 479.76h-941.936c-17.984 0-32.544-14.592-32.544-32.56 0-17.952 14.56-32.544 32.544-32.544h941.936c17.984 0 32.544 14.592 32.544 32.544 0 17.968-14.56 32.56-32.544 32.56zM977.968 97.984h-941.936c-17.984 0-32.544-14.56-32.544-32.544 0-17.968 14.56-32.544 32.544-32.544h941.936c17.984 0 32.544 14.576 32.544 32.544 0 17.984-14.56 32.544-32.544 32.544z" />
<glyph unicode="&#xe63a;" glyph-name="hearth" d="M490.832-50.752c5.696-5.328 13.024-7.856 20.544-7.856 4.72 0 9.536 1.008 14.096 2.992 5.072 2.224 9.424 5.888 12.672 10.368 45.168 42.384 435.904 413.552 466.624 606.496 1.824 7.072 42.832 174.592-45.52 285.072-50.336 62.96-130.608 93.856-239.312 90.64-5.952-0.32-131.984-7.76-208.496-76.144-76.704 66.432-200.336 73.76-206.96 74.096-107.952 2.848-188.144-27.696-238.496-90.64-88.336-110.496-47.296-278.032-46.080-282.32 32.496-203.248 453.024-596.080 470.928-612.704zM116.096 804.224c35.472 44.352 94.352 66.784 174.4 66.784 3.744 0 7.568-0.048 11.424-0.144 1.312-0.080 133.168-8.144 185.072-77.104 10.688-14.144 30.752-17.024 44.912-6.32 4.816 3.616 8.336 8.336 10.416 13.52 54.432 64.256 179.664 71.904 180.128 71.952 86.32 2.048 149.392-20.112 186.592-66.416 68.48-85.392 33.92-228.144 32.992-232.32-22.8-142.512-301.104-432.96-430.48-556.352-130.336 124.528-405.664 412.64-428.912 557.040-0.368 1.424-35.248 143.472 33.456 229.36z" />
<glyph unicode="&#xe63b;" glyph-name="history" d="M555.008 906.96c-254.192 0-460.992-206.784-460.96-459.664-0.192-4.016-2.512-70.96 16.544-143.056l-62.096 36.192c-15.424 8.96-35.072 3.76-44.128-11.632-8.928-15.36-3.744-35.12 11.632-44.080l145.52-84.832c0.304-0.16 0.608-0.208 0.896-0.352 1.552-0.832 3.136-1.44 4.816-2.016 1.136-0.4 2.24-0.816 3.376-1.088 1.392-0.304 2.768-0.4 4.192-0.528 0.992-0.096 1.984-0.4 2.976-0.4 0.56 0 1.088 0.192 1.664 0.224 0.544 0.016 1.008-0.112 1.552-0.064 0.8 0.080 1.52 0.416 2.304 0.544 1.552 0.272 3.024 0.608 4.512 1.088 1.248 0.416 2.48 0.912 3.68 1.488 1.344 0.64 2.608 1.344 3.856 2.176 1.136 0.736 2.224 1.536 3.248 2.4 1.136 0.96 2.144 2 3.152 3.12 0.944 1.040 1.76 2.128 2.544 3.28 0.432 0.64 1.008 1.104 1.392 1.76 0.288 0.496 0.288 1.072 0.528 1.568 0.432 0.88 1.104 1.648 1.488 2.592l57.888 143.328c6.672 16.512-1.296 35.312-17.792 41.984-16.528 6.624-35.312-1.312-41.984-17.824l-29.728-73.6c-19.84 66.352-17.584 134.528-17.52 136.4 0 218.624 177.872 396.48 396.464 396.48 218.608 0 396.464-177.856 396.464-396.48 0-218.592-177.856-396.448-396.464-396.448-17.824 0-32.256-14.448-32.256-32.256s14.416-32.256 32.256-32.256c254.208 0 460.992 206.784 460.992 460.96-0.032 254.208-206.816 460.992-461.008 460.992zM542.656 383.968c3.248-1.344 6.672-1.824 10.144-2.064 0.72-0.048 1.424-0.432 2.144-0.432 3.776 0 7.44 0.864 10.944 2.144 0.976 0.352 1.888 0.864 2.832 1.328 2.672 1.28 5.136 2.912 7.408 4.912 0.496 0.432 1.152 0.592 1.648 1.088l201.392 201.392c12.608 12.608 12.608 33.008 0 45.616-12.592 12.608-32.992 12.608-45.616 0l-186.112-186.096-167.024 69.952c-16.528 6.896-35.344-0.848-42.24-17.296-6.88-16.432 0.88-35.328 17.28-42.208l187.008-78.304c0.064-0.016 0.128-0.016 0.192-0.032z" />
<glyph unicode="&#xe63c;" glyph-name="home" d="M44.24 427.52c7.664 0 15.44 2.752 21.616 8.336l100.112 90.768v-460.192c0-53.296 43.344-96.656 96.656-96.656h515.568c53.296 0 96.656 43.36 96.656 96.656v456.72l95.2-87.2c6.176-5.664 13.968-8.432 21.712-8.432 8.752 0 17.44 3.504 23.792 10.416 12.016 13.152 11.088 33.536-2.016 45.552l-471.36 431.792c-1.28 1.12-2.848 1.6-4.176 2.48-1.824 1.248-3.568 2.544-5.536 3.328-1.952 0.816-3.936 1.056-5.968 1.488-2.016 0.384-3.984 0.912-6.032 0.912-2.080 0-4.016-0.512-6.048-0.896s-4.016-0.624-5.968-1.44c-1.984-0.752-3.648-2.064-5.44-3.232-1.424-0.928-3.008-1.36-4.272-2.544l-476.208-431.792c-13.152-11.952-14.176-32.336-2.24-45.52 6.384-6.992 15.136-10.544 23.952-10.544zM600.912 34.24h-161.056v259.424c0 17.776 14.448 32.24 32.224 32.24h96.608c17.776 0 32.224-14.448 32.224-32.24v-259.424zM810.368 577.344v-510.912c0-17.744-14.464-32.208-32.208-32.208h-112.816v259.44c0 53.312-43.376 96.672-96.672 96.672h-96.608c-53.312 0-96.64-43.36-96.64-96.672v-259.424h-112.832c-17.744 0-32.24 14.448-32.24 32.208v510.896c0 2.336-0.832 4.336-1.296 6.512l291.2 264.032 290.944-266.464c-0.192-1.376-0.832-2.624-0.832-4.080z" />
<glyph unicode="&#xe63d;" glyph-name="info-circle" d="M568.816 761.056c0-19.882-16.118-36-36-36s-36 16.118-36 36c0 19.882 16.118 36 36 36s36-16.118 36-36zM512 960c-282.32 0-512-229.68-512-512s229.68-512 512-512 512 229.68 512 512-229.68 512-512 512zM512 0c-247.024 0-448 200.976-448 448s200.976 448 448 448 448-200.976 448-448-200.976-448-448-448zM587.056 199.136c-66.816-75.648-115.6-51.056-116.992-50.336-1.504 0.896-3.088 1.664-4.72 2.304-4.32 1.68-10.72 5.392-16.256 18.016-38.88 88.8 49.744 356.112 87.152 451.632 4.128 10.512 2.4 22.416-4.528 31.344-6.976 8.912-18.192 13.6-29.28 12.080l-65.12-8.304c-17.536-2.24-29.936-18.272-27.712-35.792 2.256-17.52 18.592-29.904 35.776-27.696l12.688 1.632c-38.096-107.056-113.312-346.080-67.6-450.528 10.72-24.464 27.936-42.176 49.872-51.28 7.152-3.6 26.336-11.712 53.248-11.712 36.496 0 87.184 14.944 141.408 76.32 11.712 13.248 10.464 33.472-2.784 45.168-13.2 11.648-33.424 10.4-45.152-2.848z" />
<glyph unicode="&#xe63e;" glyph-name="instagram" d="M928 960h-832c-52.944 0-96-43.056-96-96v-832c0-52.944 43.056-96 96-96h832c52.944 0 96 43.056 96 96v832c0 52.944-43.056 96-96 96zM700 803.44c0 35.184 28.8 64 64 64h79.984c35.2 0 64-28.816 64-64v-96.912c0-35.184-28.8-64-64-64h-79.984c-35.2 0-64 28.816-64 64v96.912zM512 673.744c124.48 0 225.744-101.28 225.744-225.744s-101.264-225.744-225.744-225.744-225.744 101.28-225.744 225.744 101.264 225.744 225.744 225.744zM928 0h-832c-17.648 0-32 14.336-32 32v493.744h169.344c-6.96-24.816-11.088-50.784-11.088-77.744 0-159.776 129.984-289.744 289.744-289.744s289.744 129.968 289.744 289.744c0 26.976-4.144 52.944-11.088 77.744h169.344v-493.744c0-17.664-14.352-32-32-32z" />
<glyph unicode="&#xe63f;" glyph-name="laptop" d="M195.76 205.984h624.032c53.104 0 96.304 43.136 96.304 96.16v372.272c0 53.008-43.184 96.144-96.304 96.144h-624.032c-53.088 0-96.304-43.136-96.304-96.144v-372.272c0.016-53.024 43.216-96.16 96.304-96.16zM163.664 674.416c0 17.68 14.384 32.048 32.096 32.048h624.032c17.696 0 32.096-14.368 32.096-32.048v-372.272c0-17.68-14.384-32.048-32.096-32.048h-624.032c-17.696 0-32.096 14.368-32.096 32.048v372.272zM0 148.24v-106.112c0-58.512 52.336-106.128 116.608-106.128h790.752c64.32 0 116.64 47.616 116.64 106.128v106.112h-1024zM959.792 42.128c0-23.184-23.552-42.032-52.432-42.032h-790.752c-28.896 0-52.4 18.848-52.4 42.032v42h895.6v-42z" />
<glyph unicode="&#xe640;" glyph-name="leaf" d="M986.272 959.584l-639.488-107.568c-180.624-27.168-292.208-88.080-331.552-181.072-44.096-104.224 19.488-207.104 40.016-236.128 21.184-29.984 40.96-48.896 42.272-50.128l42.928-39.232c-144.336-201.952-119.312-371.088-117.408-382.448 2.688-15.856 16.4-27.008 31.904-27.008 1.728 0 3.536 0.16 5.344 0.448 17.6 2.928 29.504 19.648 26.656 37.344-1.648 10.272-23.008 164.816 118.464 350.864 1.072 0.896 2.336 1.36 3.296 2.416 2.048 2.256 3.2 4.96 4.496 7.568 87.616 111.248 233.76 232.88 477.344 341.264 16.352 7.28 23.728 26.48 16.48 42.944-7.248 16.4-26.352 23.952-42.736 16.576-238.016-105.904-388.592-225.536-483.84-338.528l-38.848 35.52c-0.176 0.128-16.272 15.648-33.536 40.128-15.648 22.096-64.192 99.824-33.248 172.928 29.552 69.744 126.88 118.928 282.112 142.272l598.608 100.688c-13.376-110.032-72.848-420.272-327.904-614.288-1.152-0.832-2.336-1.888-3.328-2.896-5.504-5.472-138.032-132.992-322.976 24-13.664 11.664-34.144 9.856-45.648-3.84-11.536-13.728-9.824-34.272 3.84-45.872 83.216-70.704 159.456-93.376 223.056-93.376 102.656 0 172.4 59.168 185.392 71.056 335.776 256.368 355.344 684.896 356 703.040 0.368 9.792-3.664 19.2-10.976 25.664-7.312 6.48-17.152 9.184-26.72 7.664z" />
<glyph unicode="&#xe641;" glyph-name="link2" d="M962.16 898c-82.496 82.656-216.72 82.688-299.152 0l-185.216-185.904c-12.608-12.656-12.608-33.184 0-45.84 12.64-12.672 33.072-12.672 45.696 0l185.216 185.888c57.248 57.424 150.416 57.392 207.744 0 57.248-57.456 57.248-150.96 0-208.384l-244.672-245.424c-27.712-27.824-64.608-43.152-103.84-43.152-39.216 0-76.128 15.344-103.872 43.152-12.624 12.672-33.072 12.672-45.712 0-12.608-12.656-12.608-33.184 0-45.84 39.984-40.080 93.088-62.16 149.6-62.16s109.568 22.096 149.552 62.16l244.672 245.408c82.432 82.72 82.432 217.344-0.016 300.096zM496.24 225.536l-180.992-181.536c-27.712-27.824-64.624-43.152-103.856-43.152-39.216 0-76.144 15.328-103.824 43.152-57.248 57.456-57.248 150.944 0 208.368l244.624 245.408c57.312 57.408 150.496 57.408 207.728 0 12.624-12.688 33.072-12.688 45.696 0 12.624 12.656 12.624 33.152 0 45.824-82.432 82.72-216.656 82.72-299.152 0l-244.608-245.376c-82.48-82.72-82.48-217.344 0-300.064 39.952-40.096 93.056-62.16 149.536-62.16 56.496 0 109.648 22.064 149.568 62.16l180.96 181.52c12.64 12.656 12.64 33.184 0 45.84-12.608 12.672-33.072 12.672-45.68 0.016z" />
<glyph unicode="&#xe642;" glyph-name="list" d="M241.088 796.4h733.616c18.048 0 32.656 14.608 32.656 32.656 0 18.016-14.608 32.64-32.656 32.64h-733.616c-18.048 0-32.64-14.624-32.64-32.64 0-18.048 14.592-32.656 32.64-32.656zM974.704 479.52h-733.616c-18.048 0-32.64-14.624-32.64-32.64s14.592-32.656 32.64-32.656h733.616c18.048 0 32.656 14.64 32.656 32.656s-14.608 32.64-32.656 32.64zM974.704 96.56h-733.616c-18.048 0-32.64-14.592-32.64-32.64 0-18.016 14.592-32.656 32.64-32.656h733.616c18.048 0 32.656 14.64 32.656 32.656 0 18.048-14.608 32.64-32.656 32.64zM73.232 760.512c38.608 0 69.856 31.296 69.856 69.904 0 38.624-31.248 69.856-69.856 69.856-38.64 0-69.888-31.232-69.888-69.856 0-38.608 31.248-69.904 69.888-69.904zM73.232 378.736c38.608 0 69.856 31.28 69.856 69.888s-31.248 69.888-69.856 69.888c-38.64 0-69.888-31.28-69.888-69.888s31.248-69.888 69.888-69.888zM73.232 133.872c-38.672 0-69.92-31.312-69.92-69.92 0-38.656 31.248-69.92 69.92-69.92 38.608 0 69.888 31.264 69.888 69.92 0 38.608-31.28 69.92-69.888 69.92z" />
<glyph unicode="&#xe643;" glyph-name="location2" d="M1015.52 922.368c-9.216 9.968-23.776 12.992-36.224 7.632l-960.016-416.384c-13.936-6.032-21.68-20.976-18.624-35.84 3.088-14.848 16.16-25.472 31.312-25.504l449.088-0.464v-452.464c0-14.688 10-27.504 24.256-31.056 2.592-0.624 5.184-0.944 7.744-0.944 11.632 0 22.64 6.336 28.272 16.976l478.944 901.328c6.368 12 4.464 26.72-4.752 36.72zM545.072 127.744v356.032c0 17.664-14.32 31.968-31.984 32l-327.248 0.336 734.992 318.784-375.76-707.152z" />
<glyph unicode="&#xe644;" glyph-name="lock2" d="M912 42.32v413.664c0 55.568-45.2 100.768-100.752 100.768h-2.464v112.688c0 160.192-130.352 290.56-290.56 290.56s-290.544-130.368-290.544-290.56v-112.688h-2.48c-55.552 0-100.752-45.2-100.752-100.768v-413.664c0-55.568 45.2-100.752 100.752-100.752h586.048c55.552 0 100.752 45.184 100.752 100.752zM294.848 669.44c0 123.168 100.208 223.392 223.376 223.392s223.376-100.224 223.376-223.392v-112.688h-446.752v112.688zM191.616 42.32v413.664c0 18.512 15.072 33.6 33.584 33.6h586.048c18.528 0 33.584-15.072 33.584-33.6v-413.664c0-18.512-15.056-33.584-33.584-33.584h-586.048c-18.512 0-33.584 15.056-33.584 33.584z" />
<glyph unicode="&#xe645;" glyph-name="map-marker" d="M808.944 829.712c-66.528 74.688-166.848 112.56-299.216 112.56-131.408 0-231.568-37.888-297.632-112.592-100.608-113.76-82.72-269.696-82.016-275.456 25.104-261.312 263.936-533.424 345.632-608.128 5.84-5.36 13.472-8.32 21.408-8.32h21.312c8.256 0 16.192 3.216 22.112 8.992 210.112 204.304 331.84 414.256 352.032 606.832 0.768 6.576 17.584 162.432-83.632 276.112zM829.504 560.576c-18.304-174.608-129.552-367.056-321.92-557.264-75.632 73.952-291.936 323.952-314.384 557.76-0.16 1.328-14.928 134.992 66.8 226.96 53.52 60.24 137.536 90.768 250.72 90.768 112.224 0 196.496-30.576 250.464-90.896 82.352-92.048 68.496-225.712 68.32-227.328zM512.672 717.216c-88.208 0-159.984-71.744-159.984-159.952s71.76-159.984 159.984-159.984 159.984 71.76 159.984 159.984c-0.016 88.208-71.776 159.952-159.984 159.952zM512.672 460.752c-53.232 0-96.512 43.28-96.512 96.512 0 53.2 43.296 96.496 96.512 96.496s96.512-43.296 96.512-96.496c0-53.232-43.296-96.512-96.512-96.512z" />
<glyph unicode="&#xe646;" glyph-name="map2" d="M983.632 959.008l-307.92-83.408-307.936 83.408c-1.936 0.496-3.872 0.064-5.84 0.192-1.568 0.336-3.088 0.064-4.688 0.192-1.568-0.128-3.12 0.16-4.688-0.192-1.936-0.16-3.904 0.32-5.808-0.192l-316.288-85.68c-13.936-3.776-23.632-16.432-23.632-30.88v-874.448c0-10.032 4.72-19.504 12.752-25.568 5.6-4.208 12.384-6.432 19.264-6.432 2.944 0 5.904 0.4 8.816 1.248l309.6 88.624 309.664-88.624c2.88-0.848 5.856-1.248 8.784-1.248s5.904 0.4 8.816 1.248l316.288 90.528c13.712 3.904 23.184 16.464 23.184 30.752v869.6c0 9.968-4.656 19.344-12.56 25.408s-18.256 8.032-27.808 5.472zM323.12 82.64l-252.272-72.208v807.52l252.288 68.368v-803.68zM391.408 886.32l252.32-68.368v-807.52l-252.32 72.208v803.68zM960 82.64l-252.288-72.208v807.52l252.288 68.368v-803.68z" />
<glyph unicode="&#xe648;" glyph-name="microphone2" d="M690.88 365.52v407.328c0 99.776-81.184 180.976-180.976 180.976s-180.992-81.184-180.992-180.976v-407.328c0-99.792 81.184-180.992 180.992-180.992 99.776 0 180.976 81.184 180.976 180.992zM393.312 365.52v407.328c0 64.288 52.32 116.592 116.592 116.592 64.256 0 116.56-52.32 116.56-116.592v-407.328c0-64.288-52.32-116.576-116.56-116.576-64.272 0-116.592 52.288-116.592 116.576zM509.904-64c17.776 0 32.176 14.4 32.176 32.192v103.488c186.832 16.384 333.92 173.472 333.92 364.464 0 17.792-14.4 32.224-32.208 32.224s-32.208-14.416-32.208-32.224c0-166.352-135.312-301.68-301.68-301.68-166.384 0-301.712 135.328-301.712 301.68 0 17.792-14.4 32.224-32.192 32.224-17.808 0-32.224-14.416-32.224-32.224 0-191.008 147.072-348.080 333.92-364.464v-103.504c0-17.776 14.416-32.176 32.208-32.176z" />
<glyph unicode="&#xe649;" glyph-name="minus-circle" d="M744.816 478.096h-452.56c-17.68 0-32-14.336-32-32s14.32-32 32-32h452.56c17.68 0 32 14.336 32 32s-14.32 32-32 32zM512 960c-282.32 0-512-229.68-512-512s229.68-512 512-512 512 229.68 512 512-229.68 512-512 512zM512 0c-247.024 0-448 200.976-448 448s200.976 448 448 448 448-200.976 448-448-200.976-448-448-448z" />
<glyph unicode="&#xe64b;" glyph-name="move2" d="M1022 460.752c-1.632 3.936-3.968 7.472-6.96 10.432l-109.392 109.408c-12.528 12.528-32.816 12.528-45.344 0-12.496-12.496-12.496-32.8 0-45.312l54.72-54.72-370.56 0.016 0.032 370.48 57.088-57.12c6.288-6.272 14.464-9.408 22.688-9.408 8.192 0 16.4 3.136 22.656 9.408 12.528 12.496 12.528 32.816 0 45.344l-111.808 111.84c-2.976 2.976-6.496 5.312-10.432 6.944-7.84 3.248-16.656 3.248-24.496 0-3.904-1.616-7.408-3.936-10.336-6.864 0 0-0.032-0.032-0.064-0.048l-109.504-109.44c-12.496-12.528-12.496-32.816 0-45.344 6.288-6.256 14.464-9.392 22.688-9.392 8.192 0 16.4 3.136 22.656 9.392l54.752 54.72-0.032-370.512-370.4 0.016 54.672 54.688c12.496 12.512 12.496 32.816 0 45.312-12.528 12.528-32.816 12.528-45.344 0l-109.408-109.44c-6.288-6.256-9.408-14.448-9.408-22.656s3.12-16.4 9.408-22.672l111.808-111.824c6.272-6.288 14.464-9.408 22.672-9.408s16.4 3.12 22.672 9.408c12.512 12.528 12.512 32.816 0 45.328l-57.136 57.136 370.448-0.016-0.016-370.448-54.688 54.672c-12.528 12.48-32.816 12.512-45.344-0.016-12.496-12.528-12.496-32.832 0-45.344l109.504-109.424c6.256-6.272 14.464-9.392 22.656-9.392 8.208 0 16.4 3.12 22.656 9.392l111.84 111.856c12.528 12.528 12.528 32.848 0 45.344-12.528 12.528-32.816 12.528-45.344 0l-57.152-57.184 0.032 370.544 370.56-0.016-57.12-57.104c-12.496-12.512-12.496-32.8 0-45.328 6.288-6.288 14.464-9.408 22.688-9.408 8.192 0 16.4 3.12 22.656 9.408l111.824 111.824c0.064 0.080 0.096 0.192 0.192 0.272 2.832 2.912 5.136 6.336 6.736 10.128 1.632 3.936 2.464 8.096 2.464 12.288-0.016 4.144-0.848 8.32-2.48 12.24z" />
<glyph unicode="&#xe64f;" glyph-name="ok-circle" d="M736.4 670.624l-350.624-387.536-110.56 122.192c-11.84 13.12-32.096 14.096-45.184 2.272-13.088-11.856-14.128-32.096-2.256-45.2l128.768-142.304c5.888-8.576 15.664-13.6 26.032-13.6 1.168 0 2.336 0.48 3.52 0.624 0.816-0.064 1.6-0.512 2.4-0.512 9.472 0 18.656 4.256 24.88 11.6l370.464 409.52c11.872 13.12 10.848 33.36-2.256 45.216-13.088 11.856-33.328 10.88-45.184-2.272zM511.968 960c-282.304 0-511.968-229.68-511.968-512s229.664-512 511.968-512c282.352 0 512.032 229.68 512.032 512s-229.68 512-512.032 512zM511.968 0c-246.992 0-447.968 200.976-447.968 448s200.976 448 447.968 448c247.040 0 448.032-200.976 448.032-448s-200.992-448-448.032-448z" />
<glyph unicode="&#xe650;" glyph-name="paperclip" d="M236.064-0.656c52.304-38.384 103.616-57.712 153.072-57.712 12.32 0 24.512 1.2 36.592 3.616 86.24 17.152 131.456 90.32 131.728 91.040l254.752 346.816c10.56 14.352 7.472 34.576-6.912 45.136s-34.56 7.456-45.136-6.928l-256.336-349.2c-0.304-0.496-32.96-52.064-90.704-63.552-42.048-8.432-88.768 6.048-138.848 42.832-146.784 107.792-70.224 221.792-60.976 234.496l421.552 574.384c0.192 0.256 18.096 24.912 50.688 30.56 29.84 5.2 64.144-6.272 102.832-34.672 15.072-10.432 55.616-46.16 62.176-85.44 3.2-19.104-1.856-37.392-15.472-55.92l-376.608-512.768c-0.16-0.224-16.992-22.912-41.808-27.024-15.68-2.528-31.84 2.576-49.68 15.664-52.992 38.944-25.488 86.112-20.080 94.24l209.888 285.776c10.544 14.352 7.472 34.576-6.912 45.136s-34.592 7.488-45.152-6.928l-210.384-286.448c-29.312-42.208-44.32-125.984 34.368-183.808 32.176-23.616 65.248-32.752 98.496-27.328 51.264 8.48 80.976 49.152 83.728 53.136l376.176 512.128c24.192 32.944 33.312 68.336 27.024 105.168-12.656 74.464-86.128 125.504-88.368 127.040-52.576 38.592-103.44 53.92-151.312 45.68-59.44-10.336-89.872-53.248-92.4-57.040l-420.64-573.136c-2.096-2.8-51.216-69.888-38.096-157.808 9.376-62.832 47.312-119.072 112.752-167.136z" />
<glyph unicode="&#xe651;" glyph-name="pencil-square" d="M999.408 935.312c-16.272 16.272-38.448 24.672-61.28 24.688-22.88-0.336-44.448-9.456-60.816-25.744l-39.136-39.088c-0.16-0.192-0.24-0.4-0.384-0.56l-510.544-509.104c-1.664-1.664-2.528-3.728-3.744-5.648-2.096-2.432-3.92-5.072-5.232-8.080l-52.064-120c-5.184-12-2.704-25.92 6.352-35.376 6.272-6.56 14.832-10.096 23.616-10.096 3.856 0 7.776 0.688 11.504 2.096l125.184 47.088c3.472 1.296 6.496 3.344 9.264 5.632 2.016 1.28 4.192 2.24 5.872 3.92l512.56 511.12c0.096 0.096 0.128 0.224 0.24 0.32l37.456 37.28c33.888 33.776 34.4 88.32 1.152 121.552zM424.928 334.096l-28.432 28.368 466.416 465.104 28.416-28.368-466.4-465.104zM952.128 859.808l-14.656-14.592-28.544 28.464 14.576 14.56c4.24 4.224 9.744 6.576 15.552 6.656 5.504 0.128 10.448-1.904 14.128-5.568 7.856-7.84 7.344-21.104-1.056-29.52zM935.264 603.952c-18.048 0-32.64-14.576-32.64-32.544v-537.776c0-17.936-14.64-32.528-32.64-32.528h-772.064c-18.016 0-32.64 14.592-32.64 32.528v769.776c0 17.936 14.624 32.544 32.64 32.544h534.448c18.032 0 32.64 14.576 32.64 32.544s-14.608 32.544-32.64 32.544h-534.448c-54 0-97.92-43.792-97.92-97.632v-769.776c0-53.84 43.92-97.632 97.92-97.632h772.064c53.984 0 97.92 43.792 97.92 97.632v537.776c0 17.968-14.608 32.544-32.64 32.544z" />
<glyph unicode="&#xe652;" glyph-name="pencil" d="M34.208-62.24c3.872 0 7.824 0.688 11.616 2.112l172.112 64.976c3.312 1.264 6.208 3.152 8.864 5.296 2.688 1.472 5.424 2.896 7.648 5.104l704.512 704.544c0.128 0.128 0.16 0.304 0.288 0.432l51.424 51.376c41.84 41.936 42.544 109.472 1.472 150.64-41.168 41.056-108.752 40.352-150.624-1.552l-53.84-53.856c-0.288-0.32-0.368-0.688-0.672-1.008l-701.6-701.584c-2.176-2.176-3.456-4.816-4.896-7.376-1.936-2.336-3.632-4.88-4.848-7.728l-71.6-165.504c-5.232-12.080-2.736-26.16 6.368-35.68 6.336-6.64 14.944-10.192 23.776-10.192zM95.136 28.688l21.616 50.016 30.368-30.368-51.984-19.648zM945.664 875.76c15.488-15.504 14.8-41.424-1.504-57.744l-28.512-28.512-56.224 56.24 28.48 28.496c16.336 16.368 42.32 16.992 57.76 1.52zM813.152 799.136l56.144-56.128-658.096-658.112-56.128 56.144 658.080 658.096z" />
<glyph unicode="&#xe653;" glyph-name="plus-circle" d="M744.816 478.096h-194.288v194.272c0 17.664-14.32 32-32 32s-32-14.336-32-32v-194.288h-194.272c-17.68 0-32-14.336-32-32s14.32-32 32-32h194.288v-194.288c0-17.664 14.32-32 32-32s32 14.336 32 32v194.304h194.288c17.68 0 32 14.336 32 32s-14.336 32-32.016 32zM512 960c-282.32 0-512-229.68-512-512s229.68-512 512-512 512 229.68 512 512-229.68 512-512 512zM512 0c-247.024 0-448 200.976-448 448s200.976 448 448 448 448-200.976 448-448-200.976-448-448-448z" />
<glyph unicode="&#xe654;" glyph-name="power-switch" d="M668.448 758c-16.848 6.24-35.264-2.336-41.424-18.992-6.208-16.688 2.336-35.2 19.008-41.36 140.352-51.904 234.656-187.232 234.656-336.752 0-197.952-161.28-359.008-359.536-359.008-198.224 0-359.504 161.040-359.504 359.008 0 149.568 94.368 284.928 234.816 336.832 16.72 6.16 25.248 24.672 19.056 41.328-6.192 16.688-24.72 25.28-41.408 19.008-165.664-61.168-276.976-220.8-276.976-397.168 0-233.44 190.208-423.376 424-423.376 233.776 0 424 189.936 424 423.376 0.016 176.336-111.168 335.888-276.688 397.104zM521.152 322.928c17.808 0 32.224 14.4 32.224 32.192v574.208c0 17.792-14.4 32.192-32.224 32.192s-32.256-14.384-32.256-32.192v-574.192c0.016-17.808 14.432-32.208 32.256-32.208z" />
<glyph unicode="&#xe655;" glyph-name="pushpin" d="M243.424 579.104c-13.936 13.936-36.56 13.952-50.496 0l-95.168-95.168c-13.968-13.936-13.936-36.56 0-50.496l124.88-124.88c-0.816-0.976-1.904-1.536-2.656-2.56l-214.080-312.448c-9.040-13.232-7.616-30.144 1.872-42.112 0.048-0.112 0.064-0.192 0.096-0.256 0.16-0.208 0.336-0.368 0.448-0.56 0.688-0.784 1.008-1.728 1.744-2.464 0.352-0.352 0.784-0.624 1.136-0.944 0.336-0.368 0.592-0.784 0.944-1.136 0.752-0.752 1.696-1.056 2.48-1.76 0.176-0.128 0.336-0.288 0.528-0.432 0.080-0.032 0.16-0.048 0.272-0.096 11.968-9.504 28.88-10.928 42.112-1.872l312.448 214.064c1.040 0.736 1.616 1.84 2.56 2.656l119.36-119.344c13.92-13.936 36.56-13.968 50.496 0l95.168 95.152c13.968 13.952 13.952 36.56 0 50.496l-26.064 26.064 270.896 270.912 116.608 10.624c13.776 1.248 25.616 10.4 30.336 23.408 4.704 13.024 1.472 27.616-8.336 37.44l-401.68 401.632c-9.76 9.792-24.352 13.024-37.392 8.32-13.024-4.688-22.128-16.528-23.376-30.336l-9.92-108.912-275.088-275.104-30.128 30.112zM168.512 104.496l104.976 153.216 48.24-48.256-153.216-104.96zM916.64 556.752l-33.28-3.024c-12.784 4.928-27.776 2.336-38.096-7.968l-309.488-309.504c-13.968-13.952-13.952-36.56 0-50.496l26.048-26.064-44.656-44.656-343.648 343.648 44.656 44.672 30.128-30.112c13.92-13.936 36.512-13.968 50.496 0l309.472 309.488c1.216 1.2 1.712 2.768 2.72 4.112 1.504 1.936 2.992 3.824 4.064 6.064 1.104 2.4 1.648 4.848 2.192 7.344 0.336 1.552 1.2 2.848 1.344 4.48l4.176 45.888 293.872-293.872z" />
<glyph unicode="&#xe656;" glyph-name="question-circle" d="M512 960c-282.32 0-512-229.68-512-512s229.68-512 512-512 512 229.68 512 512-229.68 512-512 512zM512 0c-247.024 0-448 200.976-448 448s200.976 448 448 448 448-200.976 448-448-200.976-448-448-448zM520.656 793.056c-126.4 0-229.216-102.816-229.216-229.184 0-17.664 14.32-32 32-32s32 14.336 32 32c0 91.072 74.128 165.184 165.216 165.184 91.056 0 165.152-74.112 165.152-165.184s-74.096-165.184-165.152-165.184c-17.68 0-32-14.336-32-32v-123.696c0-17.664 14.32-32 32-32s32 14.336 32 32v93.936c111.248 15.616 197.152 111.44 197.152 226.96 0 126.368-102.8 229.168-229.152 229.168zM555.648 121.536c0-19.343-15.681-35.024-35.024-35.024s-35.024 15.681-35.024 35.024c0 19.343 15.681 35.024 35.024 35.024s35.024-15.681 35.024-35.024z" />
<glyph unicode="&#xe657;" glyph-name="random" d="M1020.96 641.408c-1.664 3.936-4.064 7.504-7.008 10.496-0.096 0.080-0.128 0.192-0.224 0.288l-114.512 114.064c-13.024 12.992-34.16 12.992-47.232 0-12.992-12.992-12.992-34.064 0-47.024l57.552-57.296-269.968-0.016c-8.88 0-17.328-3.504-23.648-9.744l-355.936-354.64h-227.072c-18.416 0-33.36-14.88-33.36-33.248s14.944-33.28 33.36-33.28h240.88c8.88 0 17.36 3.52 23.632 9.744l356 354.624 256.128 0.032-55.056-54.848c-13.008-12.992-13.008-34.048 0-47.024 6.544-6.496 15.088-9.744 23.632-9.744 8.56 0 17.072 3.248 23.632 9.744l111.984 111.6c3.12 3.056 5.552 6.752 7.248 10.848 1.68 4.064 2.592 8.368 2.592 12.688-0.032 4.32-0.944 8.64-2.624 12.736zM32.912 595.408h227.072l97.984-97.632c6.496-6.496 15.024-9.744 23.584-9.744 8.528 0 17.104 3.248 23.616 9.744 13.040 12.976 13.040 34.048 0 47.024l-107.744 107.376c-6.272 6.24-14.752 9.728-23.632 9.728h-240.88c-18.416 0-33.36-14.896-33.36-33.264s14.928-33.232 33.36-33.232zM1020.96 276.976c-1.696 4.096-4.128 7.776-7.248 10.848l-111.984 111.6c-13.040 12.992-34.192 12.992-47.248 0-13.008-12.992-13.008-34.032 0-47.024l55.056-54.848-256.128 0.032-96.64 96.24c-13.040 12.992-34.176 12.992-47.216 0-13.056-12.992-13.056-34.064 0-47.040l106.368-105.968c6.32-6.256 14.768-9.744 23.648-9.744l269.968-0.032-57.552-57.264c-12.992-12.992-12.992-34.048 0-47.040 6.528-6.496 15.072-9.728 23.664-9.728 8.48 0 17.072 3.232 23.568 9.728l114.512 114.064c0.096 0.096 0.128 0.208 0.224 0.288 2.944 3.008 5.328 6.56 7.008 10.496 1.68 4.096 2.592 8.4 2.592 12.752 0 4.256-0.912 8.576-2.592 12.64z" />
<glyph unicode="&#xe658;" glyph-name="redo" d="M465.216-17.488c17.936 0 32.48 14.544 32.48 32.48 0 17.92-14.544 32.48-32.48 32.48-220.064 0-399.12 179.056-399.12 399.136 0 220.096 179.056 399.152 399.12 399.152 220.128 0 399.168-179.056 399.2-400.496 0.048-0.896 2.48-69.232-17.616-136.096l-29.968 74.192c-6.72 16.608-25.632 24.592-42.272 17.952-16.64-6.72-24.672-25.648-17.952-42.288l58.288-144.304c0.4-0.992 1.088-1.792 1.552-2.72 0.272-0.464 0.24-1.008 0.512-1.472 0.368-0.64 0.912-1.072 1.296-1.68 0.832-1.2 1.696-2.336 2.656-3.424 1.008-1.12 2.048-2.16 3.184-3.12 1.024-0.88 2.080-1.648 3.2-2.384 1.28-0.848 2.592-1.568 4-2.224 1.184-0.56 2.368-1.040 3.632-1.456 1.504-0.512 3.024-0.832 4.592-1.104 0.784-0.144 1.504-0.48 2.304-0.56 0.512-0.048 1.024 0.080 1.552 0.064 0.56-0.032 1.104-0.208 1.68-0.208 0.992 0 2 0.288 3.008 0.384 1.28 0.128 2.544 0.224 3.792 0.496 1.568 0.32 3.008 0.88 4.512 1.456 1.232 0.448 2.432 0.88 3.6 1.488 0.464 0.24 0.976 0.32 1.408 0.592l146.528 85.392c15.472 9.024 20.688 28.912 11.68 44.4-9.024 15.488-28.976 20.704-44.432 11.696l-62.496-36.448c19.184 72.48 16.848 139.568 16.688 142.688 0 255.92-208.192 464.112-464.128 464.112-255.872 0-464.080-208.192-464.080-464.112 0-255.888 208.208-464.064 464.080-464.064z" />
<glyph unicode="&#xe659;" glyph-name="refresh" d="M534 798.32c0.912 0.016 68.704 2.448 134.992-17.472l-73.584-29.728c-16.512-6.672-24.464-25.424-17.808-41.936 6.672-16.48 25.52-24.4 41.904-17.808l143.168 57.824c0.688 0.288 1.264 0.784 1.952 1.12 0.72 0.336 1.52 0.496 2.24 0.928 0.432 0.272 0.688 0.704 1.088 0.992 6.384 4.112 11.008 10.208 13.248 17.44 0.288 0.96 0.464 1.888 0.688 2.88 0.224 1.136 0.672 2.192 0.8 3.344 0.192 1.872-0.096 3.68-0.224 5.504-0.080 0.816 0.032 1.6-0.112 2.4-0.56 3.712-1.776 7.2-3.552 10.464-0.192 0.336-0.16 0.704-0.336 1.024l-84.752 145.344c-8.976 15.328-28.688 20.528-44.080 11.6-15.344-8.96-20.544-28.688-11.616-44.048l36.16-62c-71.888 19.008-138.416 16.672-141.52 16.544-253.856 0-460.416-206.528-460.416-460.4 0-17.792 14.4-32.208 32.224-32.208 17.792 0 32.208 14.416 32.208 32.208 0 218.32 177.664 395.952 397.328 395.984zM902.432 525.872c-17.792 0-32.208-14.416-32.208-32.208 0-218.336-177.632-395.984-397.232-396-0.848 0.032-68.704-2.336-134.96 17.504l73.52 29.696c16.48 6.672 24.432 25.424 17.776 41.936-6.672 16.512-25.424 24.432-41.936 17.808l-143.136-57.824c-0.976-0.384-1.728-1.056-2.64-1.52-0.496-0.24-1.040-0.224-1.52-0.512-0.432-0.272-0.688-0.704-1.088-0.992-3.216-2.080-6.144-4.464-8.4-7.472 0-0.016-0.032-0.032-0.064-0.048-2.208-2.944-3.664-6.352-4.752-9.904-0.32-0.976-0.496-1.92-0.72-2.912-0.224-1.136-0.672-2.192-0.8-3.344-0.192-1.888 0.064-3.728 0.24-5.584 0.064-0.768-0.032-1.504 0.096-2.272 0.528-3.76 1.776-7.28 3.584-10.592 0.16-0.304 0.128-0.656 0.32-0.944l84.688-145.328c5.984-10.272 16.768-16 27.872-16 5.504 0 11.072 1.408 16.208 4.368 15.344 8.96 20.544 28.688 11.616 44.048l-36.224 62.128c56.336-14.912 109.424-16.832 131.28-16.832 6.048 0 9.68 0.144 10.352 0.176 253.824 0 460.352 206.528 460.352 460.4 0 17.792-14.4 32.224-32.224 32.224z" />
<glyph unicode="&#xe65a;" glyph-name="resize-full" d="M404.080 385.52l-339.824-339.84v168.88c0 17.728-14.352 32.128-32.128 32.128-17.76 0-32.128-14.384-32.128-32.128v-246.432c0-4.176 0.848-8.336 2.48-12.272 3.248-7.872 9.504-14.112 17.376-17.392 3.92-1.616 8.096-2.464 12.272-2.464h246.448c17.744 0 32.128 14.368 32.128 32.128s-14.368 32.128-32.128 32.128h-168.896l339.808 339.84c12.544 12.544 12.544 32.88 0 45.424s-32.864 12.544-45.408 0zM1021.52 940.144c-3.248 7.856-9.504 14.112-17.376 17.392-3.92 1.616-8.096 2.464-12.272 2.464h-246.448c-17.744 0-32.128-14.368-32.128-32.128s14.368-32.128 32.128-32.128h168.896l-339.808-339.84c-12.544-12.544-12.544-32.88 0-45.424 6.272-6.272 14.496-9.424 22.72-9.424s16.432 3.152 22.704 9.424l339.808 339.84v-168.88c0-17.728 14.352-32.128 32.128-32.128 17.744 0 32.128 14.384 32.128 32.128v246.432c0 4.176-0.848 8.352-2.48 12.272z" />
<glyph unicode="&#xe65b;" glyph-name="resize-h" d="M1022.784 463.504c-1.632 3.936-3.968 7.472-6.944 10.416l-109.408 109.328c-12.528 12.496-32.816 12.496-45.328 0s-12.512-32.784 0-45.28l54.704-54.672-805.088 0.032 54.688 54.64c12.496 12.496 12.496 32.784 0 45.28-12.528 12.496-32.816 12.496-45.344 0l-109.424-109.344c-6.272-6.256-9.392-14.432-9.392-22.64s3.12-16.4 9.392-22.656l111.872-111.712c6.272-6.24 14.448-9.36 22.672-9.36 8.192 0 16.384 3.12 22.656 9.376 12.512 12.496 12.512 32.784 0 45.312l-57.12 57.056 805.056-0.032-57.12-57.024c-12.496-12.528-12.496-32.816 0-45.312 6.288-6.256 14.464-9.376 22.672-9.376s16.384 3.12 22.672 9.36l111.872 111.712c0.032 0.048 0.064 0.096 0.096 0.144 2.912 2.928 5.216 6.4 6.816 10.288 1.632 3.904 2.464 8.064 2.464 12.24s-0.848 8.32-2.464 12.224z" />
<glyph unicode="&#xe65c;" glyph-name="resize-small" d="M457.888 115.36v246.416c0 4.192-0.848 8.336-2.48 12.272-3.248 7.856-9.504 14.144-17.376 17.376-3.92 1.648-8.096 2.48-12.272 2.48h-246.416c-17.776 0-32.128-14.384-32.128-32.128s14.336-32.128 32.128-32.128h168.88l-339.824-339.808c-12.528-12.56-12.528-32.896 0-45.44 6.288-6.288 14.496-9.408 22.72-9.408s16.432 3.12 22.72 9.408l339.792 339.808v-168.848c0-17.728 14.352-32.128 32.128-32.128s32.128 14.4 32.128 32.128zM968.176 949.584l-339.808-339.824v168.864c0 17.744-14.368 32.128-32.128 32.128s-32.128-14.368-32.128-32.128v-246.4c0-4.192 0.848-8.336 2.464-12.288 3.264-7.84 9.52-14.112 17.376-17.376 3.936-1.632 8.112-2.464 12.288-2.464h246.416c17.76 0 32.128 14.368 32.128 32.128 0 17.728-14.352 32.128-32.128 32.128h-168.864l339.808 339.808c12.544 12.544 12.544 32.88 0 45.424s-32.896 12.544-45.424 0z" />
<glyph unicode="&#xe65d;" glyph-name="resize-v" d="M594.384 793.44c6.256-6.288 14.448-9.408 22.64-9.408s16.384 3.12 22.64 9.376c12.512 12.528 12.512 32.832 0 45.344l-111.68 111.84c-2.976 2.976-6.496 5.328-10.432 6.96-7.76 3.2-16.512 3.296-24.288 0.128-0.096-0.032-0.128-0.096-0.192-0.128-3.376-1.408-6.32-3.552-8.976-5.952-0.432-0.4-0.992-0.528-1.44-0.944l-0.032-0.064-109.312-109.408c-12.512-12.496-12.512-32.8 0-45.312 6.256-6.272 14.448-9.408 22.64-9.408 8.208 0 16.384 3.136 22.64 9.408l54.672 54.72-0.032-805.136-54.64 54.688c-12.496 12.512-32.768 12.512-45.28 0-12.512-12.528-12.512-32.832 0-45.328l109.344-109.424c6.272-6.272 14.464-9.392 22.656-9.392s16.384 3.12 22.64 9.392l111.712 111.856c12.512 12.512 12.512 32.832 0 45.328-12.496 12.512-32.768 12.512-45.28 0l-57.072-57.136 0.032 805.12 57.040-57.12z" />
<glyph unicode="&#xe65e;" glyph-name="retweet" d="M247.776 551.76c6.368-7.264 15.232-10.992 24.112-10.992 7.648 0 15.328 2.752 21.52 8.288 13.312 12 14.496 32.688 2.64 46.192l-119.808 136.448c-0.224 0.24-0.512 0.336-0.736 0.544-0.464 0.496-0.912 0.96-1.408 1.408-0.256 0.24-0.32 0.528-0.56 0.752-1.168 1.056-2.608 1.44-3.856 2.304-1.488 0.992-2.832 2.272-4.4 2.992-0.592 0.288-1.2 0.432-1.792 0.656-1.728 0.656-3.504 0.832-5.296 1.184-1.728 0.336-3.376 0.912-5.168 0.96-0.336 0.016-0.608 0.192-0.928 0.192s-0.592-0.176-0.928-0.192c-1.792-0.048-3.472-0.608-5.232-0.96-1.792-0.352-3.536-0.528-5.232-1.184-0.592-0.224-1.184-0.368-1.76-0.656-1.616-0.72-2.944-1.984-4.448-2.992-1.28-0.864-2.736-1.248-3.904-2.304-0.256-0.24-0.32-0.544-0.56-0.784-0.48-0.432-0.928-0.896-1.36-1.376-0.224-0.224-0.496-0.32-0.736-0.544l-119.776-136.448c-11.856-13.504-10.656-34.192 2.688-46.192 6.16-5.536 13.808-8.288 21.44-8.288 8.912 0 17.76 3.712 24.144 10.992l63.36 72.176v-375.12c0-54.128 43.472-98.144 96.928-98.144h466.24c17.84 0 32.304 14.64 32.304 32.704 0 18.080-14.448 32.72-32.304 32.72h-466.24c-17.84 0-32.32 14.688-32.32 32.72v375.12l63.376-72.176zM967.568 341.568l-63.344-72.16v375.12c0 54.128-43.488 98.144-96.928 98.144h-454.64c-17.872 0-32.32-14.64-32.32-32.704 0-18.080 14.432-32.72 32.32-32.72h454.64c17.84 0 32.32-14.688 32.32-32.72v-375.12l-63.392 72.16c-11.872 13.504-32.256 14.72-45.632 2.688-13.312-12-14.496-32.688-2.656-46.176l119.824-136.432c0.192-0.24 0.512-0.304 0.704-0.512 0.464-0.512 0.944-0.992 1.44-1.472 0.224-0.208 0.32-0.496 0.56-0.72 1.52-1.344 3.296-2 4.944-3.024 0.528-0.336 0.992-0.768 1.6-1.056 0.752-0.4 1.36-1.12 2.144-1.472 0.288-0.128 0.592-0.16 0.88-0.288 3.856-1.536 7.84-2.416 11.904-2.416 4.016 0 8.064 0.88 11.888 2.416 0.288 0.128 0.592 0.16 0.896 0.288 0.784 0.336 1.376 1.040 2.096 1.44 0.528 0.304 0.944 0.704 1.456 0.992 1.744 1.024 3.616 1.744 5.136 3.12 0.256 0.24 0.32 0.544 0.56 0.784 0.48 0.448 0.928 0.928 1.392 1.408 0.192 0.224 0.496 0.288 0.688 0.512l119.808 136.432c11.84 13.488 10.64 34.176-2.704 46.176-13.36 12.032-33.76 10.8-45.584-2.688z" />
<glyph unicode="&#xe661;" glyph-name="search-minus" d="M422.336 125.6c102.464 0 196.16 37.664 268.528 99.6l279.024-279.008c6.288-6.288 14.528-9.44 22.784-9.44s16.496 3.152 22.816 9.44c6.288 6.32 9.44 14.56 9.44 22.8 0 8.256-3.152 16.496-9.44 22.8l-279.024 278.992c61.952 72.352 99.616 166.080 99.616 268.576 0 228.176-185.584 413.776-413.728 413.776-228.176 0-413.776-185.616-413.776-413.776s185.6-413.76 413.76-413.76zM422.336 888.656c192.576 0 349.248-156.688 349.248-349.296s-156.672-349.296-349.248-349.296c-192.624 0-349.296 156.688-349.296 349.296s156.672 349.296 349.296 349.296zM307.68 507.12h226.56c17.824 0 32.256 14.432 32.256 32.24s-14.416 32.24-32.256 32.24h-226.56c-17.824 0-32.256-14.432-32.256-32.24s14.432-32.24 32.256-32.24z" />
<glyph unicode="&#xe662;" glyph-name="search-plus" d="M414.336 124.72c102 0 195.264 37.504 267.296 99.136l277.712-277.696c6.304-6.272 14.496-9.408 22.72-9.408 8.208 0 16.4 3.136 22.656 9.408 6.304 6.288 9.424 14.464 9.424 22.688s-3.12 16.416-9.424 22.688l-277.728 277.712c61.664 72 99.168 165.296 99.168 267.312 0 227.12-184.736 411.856-411.824 411.856-227.104 0-411.872-184.736-411.872-411.856-0.016-227.088 184.752-411.84 411.872-411.84zM414.336 884.256c191.664 0 347.664-155.968 347.664-347.68 0-191.696-156-347.664-347.664-347.664-191.728 0-347.696 155.952-347.696 347.664-0.016 191.712 155.952 347.68 347.696 347.68zM290.4 504.464h80.656v-80.656c0-17.712 14.368-32.080 32.096-32.080 17.744 0 32.096 14.352 32.096 32.080v80.656h80.688c17.728 0 32.064 14.368 32.064 32.096s-14.336 32.096-32.064 32.096h-80.688v80.672c0 17.728-14.336 32.080-32.096 32.080-17.712 0-32.096-14.336-32.096-32.080v-80.672h-80.656c-17.712 0-32.096-14.368-32.096-32.096s14.384-32.096 32.096-32.096z" />
<glyph unicode="&#xe663;" glyph-name="search2" d="M414.64 124.72c102.032 0 195.296 37.504 267.328 99.136l277.712-277.696c6.272-6.256 14.464-9.392 22.688-9.392 8.208 0 16.4 3.136 22.688 9.392 6.272 6.288 9.408 14.464 9.408 22.688s-3.136 16.432-9.408 22.704l-277.712 277.696c61.648 72 99.152 165.296 99.152 267.312 0 227.104-184.784 411.856-411.856 411.856-227.104 0-411.872-184.752-411.872-411.856 0-227.088 184.768-411.84 411.872-411.84zM414.64 884.24c191.68 0 347.664-155.952 347.664-347.664 0-191.68-155.984-347.664-347.664-347.664-191.696 0-347.68 155.968-347.68 347.664 0 191.712 155.984 347.664 347.68 347.664z" />
<glyph unicode="&#xe664;" glyph-name="share-square" d="M1022.944 785.904c-0.192 0.832-0.256 1.664-0.496 2.464-1.152 3.648-2.944 6.944-5.216 9.936-0.224 0.288-0.256 0.624-0.464 0.912l-121.12 148.784c-11.344 13.936-31.808 16.064-45.776 4.656-13.904-11.376-16.016-31.904-4.672-45.84l58.176-71.472c-87.632 10.944-167.504-4.432-171.216-5.184-283.424-44.672-477.712-311.968-433.168-595.856 2.544-16.080 16.352-27.536 32.128-27.536 1.68 0 3.36 0.128 5.072 0.384 17.76 2.816 29.872 19.488 27.104 37.264-38.992 248.384 131.008 482.272 380.272 521.584 1.072 0.192 84.944 16.528 167.776 2.496l-87.408-52.48c-15.408-9.264-20.4-29.28-11.184-44.72s29.28-20.416 44.624-11.2l150.848 90.576c0.848 0.512 1.472 1.232 2.256 1.792 0.496 0.368 1.12 0.496 1.6 0.912 0.432 0.32 0.592 0.816 0.976 1.152 2.848 2.56 5.408 5.408 7.184 8.784 0.032 0.032 0.064 0.096 0.096 0.128 1.68 3.28 2.624 6.848 3.184 10.528 0.16 1.056 0.192 2.080 0.256 3.152 0.032 1.136 0.32 2.256 0.256 3.376-0.128 1.872-0.688 3.632-1.088 5.408zM932.416 543.536c-17.984 0-32.544-14.592-32.544-32.592v-477.152c0-17.968-14.56-32.592-32.528-32.592h-769.728c-17.952 0-32.528 14.624-32.528 32.592v771.104c0 17.968 14.576 32.592 32.528 32.592h384.864c18 0 32.544 14.592 32.544 32.592s-14.544 32.608-32.544 32.608h-384.864c-53.84 0-97.616-43.872-97.616-97.792v-771.104c0-53.936 43.776-97.792 97.616-97.792h769.728c53.84 0 97.632 43.856 97.632 97.776v477.168c0 18-14.576 32.592-32.56 32.592z" />
<glyph unicode="&#xe665;" glyph-name="share2" d="M1014.176 700.912l0.032 0.032c0.032 0.048 0.064 0.096 0.096 0.16 2.752 3.12 4.768 6.88 6.384 10.848 0.512 1.216 0.848 2.368 1.216 3.6 0.928 3.056 1.504 6.224 1.696 9.536 0.096 1.216 0.288 2.368 0.256 3.616 0 0.64 0.16 1.216 0.128 1.84-0.224 3.824-0.992 7.52-2.176 10.992-0.096 0.368-0.352 0.656-0.48 1.024-1.408 3.824-3.424 7.216-5.808 10.32-0.336 0.432-0.448 1.008-0.8 1.44l-164.976 194.336c-12.624 14.88-33.344 15.168-46.304 0.592-12.928-14.56-13.168-38.432-0.512-53.344l88.928-104.784c-129.936 17.216-257.664-10.128-263.696-11.472-394.336-71.472-673.392-435.632-622.080-811.776 2.544-18.624 16.448-31.872 32.304-31.872 1.696 0 3.392 0.144 5.12 0.432 17.856 3.248 30.048 22.544 27.264 43.136-45.712 335.040 208.896 660.512 568.592 725.728 1.648 0.384 133.616 28.704 257.872 9.184l-137.232-81.488c-16.080-9.568-22.368-32.32-14.096-50.832 8.256-18.544 27.968-25.728 44.096-16.272l216.32 128.448c2.928 1.776 5.552 4 7.856 6.576z" />
<glyph unicode="&#xe666;" glyph-name="shopping-cart" d="M1017.28 721.92c-6.064 7.648-15.344 12.128-25.184 12.128h-830.432l-27.12 151.936c-0.208 1.2-0.912 2.112-1.296 3.248-0.624 2.112-1.312 4.064-2.368 5.936-0.944 1.76-2 3.264-3.248 4.8-1.344 1.616-2.704 3.088-4.368 4.416-1.504 1.232-3.008 2.208-4.736 3.136-1.872 1.072-3.744 1.904-5.808 2.576-1.92 0.624-3.888 0.928-5.936 1.168-1.28 0.144-2.384 0.736-3.664 0.736h-71.2c-17.632 0-31.92-14.064-31.92-31.456 0-17.376 14.288-31.456 31.92-31.456h44.4l109.568-613.488 0.432-2.576c0-0.032 0-0.032 0-0.064l30.016-168.016c2.672-15.056 15.92-26.032 31.456-26.032h69.536c-18.912-1.152-34.016-16.32-34.016-35.248 0-19.68 16.208-35.664 36.208-35.664s36.224 15.968 36.224 35.664c0 18.944-15.152 34.096-34.048 35.248h448.752c-18.928-1.152-34.048-16.32-34.048-35.248 0-19.68 16.224-35.664 36.224-35.664 19.968 0 36.192 15.968 36.192 35.664 0 18.944-15.088 34.096-34.032 35.248h41.744c17.664 0 31.936 14.080 31.936 31.472 0 17.376-14.288 31.456-31.936 31.456h-541.968l-18.768 105.072h616.832c14.624 0 27.376 9.76 30.96 23.712l119.424 464.224c2.432 9.44 0.304 19.392-5.728 27.072zM847.808 269.808h-603.152l-70.016 401.312h776.416l-103.248-401.312z" />
<glyph unicode="&#xe667;" glyph-name="smile" d="M512 960c-282.32 0-512-229.68-512-512s229.68-512 512-512 512 229.68 512 512-229.68 512-512 512zM512 0c-247.024 0-448 200.976-448 448s200.976 448 448 448 448-200.976 448-448-200.976-448-448-448zM397.696 618.224c0-38.333-31.075-69.408-69.408-69.408s-69.408 31.075-69.408 69.408c0 38.333 31.075 69.408 69.408 69.408s69.408-31.075 69.408-69.408zM765.088 618.224c0-38.333-31.075-69.408-69.408-69.408s-69.408 31.075-69.408 69.408c0 38.333 31.075 69.408 69.408 69.408s69.408-31.075 69.408-69.408zM840.656 374.912c-16.848 5.056-34.752-4.592-39.808-21.504-0.56-1.904-59.824-191.152-288.848-191.152-227.504 0-286.464 183.472-288.88 191.28-5.12 16.88-23.056 26.4-39.776 21.376-16.944-5.072-26.56-22.912-21.504-39.824 0.72-2.368 74.032-236.832 350.16-236.832s349.44 234.464 350.16 236.848c5.056 16.896-4.56 34.736-21.504 39.808z" />
<glyph unicode="&#xe668;" glyph-name="star-empty" d="M238.784 327.408l-56.912-324.448c-2.288-13.024 3.552-26.128 14.736-33.152 11.184-6.992 25.552-6.544 36.256 1.2l280.080 202.448 280.096-202.448c5.664-4.064 12.336-6.16 19.024-6.16 5.952 0 11.936 1.664 17.216 4.96 11.184 7.024 17.024 20.128 14.752 33.152l-56.944 324.448 226.432 199.568c9.44 8.336 13.232 21.344 9.68 33.456-3.536 12.080-13.712 21.040-26.16 23.008l-342.032 53.28-112.080 269.472c-5.040 12.112-16.864 20-29.984 20-13.088 0-24.928-7.888-29.968-20l-112.128-269.488-342-53.28c-12.448-1.952-22.64-10.928-26.192-23.008-3.536-12.112 0.272-25.104 9.712-33.456l226.416-199.552zM398.832 575.328c11.168 1.728 20.64 9.2 24.992 19.6l89.12 214.288 89.152-214.288c4.336-10.384 13.792-17.856 24.976-19.6l291.6-45.408-188.16-165.872c-8.48-7.456-12.448-18.8-10.512-29.92l46.256-263.664-234.288 169.376c-5.664 4.112-12.336 6.144-19.024 6.144-6.656 0-13.344-2.032-19.008-6.144l-234.304-169.376 46.272 263.664c1.952 11.12-2.016 22.464-10.512 29.92l-188.144 165.872 291.584 45.408z" />
<glyph unicode="&#xe669;" glyph-name="star-half-empty" d="M237.136 327.392l-57.136-325.792c-2.304-13.088 3.568-26.224 14.8-33.296 5.28-3.312 11.328-4.976 17.328-4.976 6.688 0 13.392 2.112 19.104 6.176l281.216 203.296 281.216-203.296c5.696-4.064 12.416-6.176 19.088-6.176 6 0 12.048 1.664 17.328 4.976 11.232 7.072 17.088 20.208 14.8 33.296l-57.136 325.792 227.36 200.4c9.504 8.368 13.28 21.424 9.744 33.584-3.584 12.128-13.808 21.136-26.304 23.072l-343.44 53.52-112.544 270.608c-0.32 0.72-0.928 1.168-1.264 1.824-1.536 3.152-3.328 6.192-5.872 8.656-2.288 2.304-5.072 3.856-7.872 5.36-0.944 0.512-1.568 1.344-2.544 1.712-0.064 0.032-0.064 0-0.096 0.032-3.92 1.632-8.16 2.448-12.448 2.448-4.336 0-8.528-0.832-12.48-2.448 0 0-0.032 0-0.064-0.032-0.832-0.32-1.344-1.008-2.096-1.392-3.008-1.568-5.968-3.264-8.368-5.68-2.48-2.464-4.24-5.472-5.792-8.592-0.352-0.688-0.992-1.136-1.312-1.888l-112.592-270.608-343.424-53.52c-12.48-1.936-22.72-10.96-26.304-23.072-3.536-12.16 0.256-25.2 9.744-33.584l227.36-200.4zM627.056 576.336l292.768-45.6-188.928-166.56c-8.496-7.488-12.48-18.88-10.544-30.048l46.448-264.736-235.248 170.080c-0.368 0.256-0.816 0.32-1.2 0.56-1.968 1.264-4.080 1.984-6.224 2.816-1.824 0.688-3.6 1.664-5.504 2-2.032 0.416-4.080 0.24-6.176 0.24v566.096l89.52-215.168c4.336-10.432 13.856-17.92 25.088-19.68z" />
<glyph unicode="&#xe66a;" glyph-name="star2" d="M237.296 326.096l-57.104-325.44c-2.288-13.056 3.552-26.192 14.784-33.264 11.248-6.992 25.632-6.544 36.336 1.216l280.96 203.072 280.976-203.072c5.648-4.080 12.336-6.176 19.072-6.176 5.968 0 11.952 1.664 17.248 4.96 11.232 7.072 17.072 20.208 14.8 33.264l-57.104 325.44 227.104 200.192c9.488 8.352 13.296 21.392 9.728 33.552-3.536 12.128-13.744 21.104-26.24 23.040l-343.056 53.472-112.464 270.288c-5.024 12.144-16.928 20.064-30.064 20.064-13.12 0-25.008-7.92-30.048-20.064l-112.48-270.304-343.056-53.456c-12.496-1.936-22.704-10.928-26.24-23.040-3.568-12.16 0.256-25.184 9.728-33.552l227.12-200.192z" />
<glyph unicode="&#xe66b;" glyph-name="stats" d="M271.024 318.56h-130.208c-18.768 0-33.952-15.184-33.952-33.952v-314.656c0-18.768 15.184-33.952 33.952-33.952h130.224c18.768 0 33.952 15.184 33.952 33.952v314.656c0 18.768-15.2 33.952-33.968 33.952zM237.072 3.904h-62.32v246.752h62.32v-246.752zM572.848 556.544h-130.224c-18.768 0-33.952-15.184-33.952-33.952v-552.64c0-18.768 15.184-33.952 33.952-33.952h130.224c18.768 0 33.952 15.184 33.952 33.952v552.64c0 18.768-15.184 33.952-33.952 33.952zM538.896 3.904h-62.32v484.736h62.32v-484.736zM878.048 803.664h-130.224c-18.768 0-33.952-15.184-33.952-33.952v-799.76c0-18.768 15.184-33.952 33.952-33.952h130.224c18.768 0 33.952 15.184 33.952 33.952v799.76c0 18.768-15.184 33.952-33.952 33.952zM844.096 3.904h-62.32v731.856h62.32v-731.856z" />
<glyph unicode="&#xe66d;" glyph-name="tag2" d="M1014.496 331.056l-619.424 619.472c-6.72 6.688-15.904 10.064-25.552 9.248l-308.528-27.488c-15.296-1.376-27.44-13.408-29.008-28.656l-31.92-313.008c-0.976-9.584 2.4-19.088 9.216-25.872l619.424-619.472c6.256-6.256 14.432-9.376 22.64-9.376 8.192 0 16.368 3.12 22.624 9.376l340.528 340.528c6.032 6 9.408 14.128 9.408 22.624s-3.376 16.624-9.408 22.624zM651.344 13.184l-586.048 586.064 27.712 271.6 267.328 23.84 586.272-586.256-295.264-295.248zM223.584 740.624c-21.088-21.088-32.672-49.12-32.672-78.912-0.032-29.808 11.584-57.84 32.64-78.912 21.12-21.088 49.152-32.72 78.992-32.72 29.808 0 57.808 11.6 78.896 32.688 43.504 43.536 43.504 114.32-0.032 157.84-42.16 42.176-115.68 42.176-157.824 0.016zM336.16 628.032c-17.968-17.968-49.328-17.968-67.296 0.032-8.976 8.992-13.904 20.944-13.904 33.664 0 12.688 4.944 24.624 13.904 33.632s20.912 13.936 33.648 13.936c12.72 0 24.656-4.944 33.632-13.936 18.512-18.576 18.512-48.768 0.016-67.328z" />
<glyph unicode="&#xe66e;" glyph-name="th-large" d="M383.472 415.6h-287.472c-52.944 0-96-43.056-96-96v-287.6c0-52.944 43.056-96 96-96h287.472c52.944 0 96 43.056 96 96v287.6c0 52.928-43.072 96-96 96zM415.472 32c0-17.648-14.336-32-32-32h-287.472c-17.664 0-32 14.352-32 32v287.6c0 17.648 14.336 32 32 32h287.472c17.664 0 32-14.352 32-32v-287.6zM928 415.6h-287.504c-52.944 0-96-43.056-96-96v-287.6c0-52.944 43.056-96 96-96h287.504c52.944 0 96 43.056 96 96v287.6c0 52.928-43.056 96-96 96zM960 32c0-17.648-14.368-32-32-32h-287.504c-17.632 0-32 14.352-32 32v287.6c0 17.648 14.368 32 32 32h287.504c17.632 0 32-14.352 32-32v-287.6zM383.472 960h-287.472c-52.944 0-96-43.056-96-96v-287.504c0-52.944 43.056-96 96-96h287.472c52.944 0 96 43.056 96 96v287.504c0 52.944-43.072 96-96 96zM415.472 576.496c0-17.648-14.336-32-32-32h-287.472c-17.664 0-32 14.352-32 32v287.504c0 17.648 14.336 32 32 32h287.472c17.664 0 32-14.352 32-32v-287.504zM928 960h-287.504c-52.944 0-96-43.056-96-96v-287.504c0-52.944 43.056-96 96-96h287.504c52.944 0 96 43.056 96 96v287.504c0 52.944-43.056 96-96 96zM960 576.496c0-17.648-14.368-32-32-32h-287.504c-17.632 0-32 14.352-32 32v287.504c0 17.648 14.368 32 32 32h287.504c17.632 0 32-14.352 32-32v-287.504z" />
<glyph unicode="&#xe66f;" glyph-name="th-list" d="M223.12 959.872h-127.12c-52.944 0-96-43.056-96-96v-127.056c0-52.944 43.056-96 96-96h127.12c52.944 0 96 43.056 96 96v127.056c0 52.944-43.056 96-96 96zM255.12 736.816c0-17.648-14.368-32-32-32h-127.12c-17.632 0-32 14.352-32 32v127.056c0 17.648 14.368 32 32 32h127.12c17.632 0 32-14.352 32-32v-127.056zM928 960h-479.712c-52.944 0-96-43.056-96-96v-127.088c0-52.944 43.056-96 96-96h479.712c52.944 0 96 43.056 96 96v127.088c0 52.944-43.056 96-96 96zM960 736.912c0-17.648-14.336-32-32-32h-479.712c-17.664 0-32 14.352-32 32v127.088c0 17.648 14.336 32 32 32h479.712c17.664 0 32-14.352 32-32v-127.088zM223.12 607.408h-127.12c-52.944 0-96-43.056-96-96v-127.056c0-52.944 43.056-96 96-96h127.12c52.944 0 96 43.056 96 96v127.056c0 52.928-43.056 96-96 96zM255.12 384.336c0-17.648-14.368-32-32-32h-127.12c-17.632 0-32 14.352-32 32v127.056c0 17.648 14.368 32 32 32h127.12c17.632 0 32-14.352 32-32v-127.056zM928 607.536h-479.712c-52.944 0-96-43.056-96-96v-127.088c0-52.944 43.056-96 96-96h479.712c52.944 0 96 43.056 96 96v127.088c0 52.928-43.056 96-96 96zM960 384.432c0-17.648-14.336-32-32-32h-479.712c-17.664 0-32 14.352-32 32v127.088c0 17.648 14.336 32 32 32h479.712c17.664 0 32-14.352 32-32v-127.088zM223.12 255.088h-127.12c-52.944 0-96-43.056-96-96v-127.088c0-52.944 43.056-96 96-96h127.12c52.944 0 96 43.056 96 96v127.088c0 52.944-43.056 96-96 96zM255.12 32c0-17.648-14.368-32-32-32h-127.12c-17.632 0-32 14.352-32 32v127.088c0 17.648 14.368 32 32 32h127.12c17.632 0 32-14.352 32-32v-127.088zM928 255.216h-479.712c-52.944 0-96-43.056-96-96v-127.088c0-52.944 43.056-96 96-96h479.712c52.944 0 96 43.056 96 96v127.088c0 52.944-43.056 96-96 96zM960 32.128c0-17.648-14.336-32-32-32h-479.712c-17.664 0-32 14.352-32 32v127.088c0 17.648 14.336 32 32 32h479.712c17.664 0 32-14.352 32-32v-127.088z" />
</font>
</defs>
</svg>
